<?xml version="1.0" encoding="utf-8"?>
<!-- Generator: Adobe Illustrator 24.0.1, SVG Export Plug-In . SVG Version: 6.00 Build 0)  -->
<svg version="1.1" id="Layer_1" xmlns="http://www.w3.org/2000/svg" xmlns:xlink="http://www.w3.org/1999/xlink" x="0px" y="0px"
	 viewBox="0 0 400 200" style="enable-background:new 0 0 400 200;" xml:space="preserve">
<style type="text/css">
	.st0{fill:#F7941D;}
	.st1{fill:#F15A29;}
	.st2{fill:#FFFFFF;}
	.st3{opacity:0.3;}
	.st4{stroke:#FFFFFF;stroke-width:0.25;stroke-miterlimit:10;}
</style>
<rect class="st0" width="400" height="200"/>
<g>
	<path class="st1" d="M352.08,176.35H39.38c-11.43,0-20.73-9.3-20.73-20.73V54.85c0-11.43,9.3-20.73,20.73-20.73h312.69
		c11.43,0,20.73,9.3,20.73,20.73v100.77C372.81,167.05,363.51,176.35,352.08,176.35z M39.38,37.12c-9.78,0-17.73,7.95-17.73,17.73
		v100.77c0,9.78,7.95,17.73,17.73,17.73h312.69c9.78,0,17.73-7.95,17.73-17.73V54.85c0-9.78-7.95-17.73-17.73-17.73H39.38z"/>
</g>
<g>
	<g>
		<path d="M116.77,151.33c-1.31,0.86-2.81,1.29-4.51,1.29c-2.38,0-4.17-3.21-5.36-9.63c-1.19-6.42-2.24-15.14-3.15-26.16
			c-2.84,0.36-7.66,1.15-14.47,2.37c-6.81,1.22-13.1,2.42-18.89,3.59c-20.42,4.07-31.94,6.1-34.55,6.1c-0.8,0-1.9-0.5-3.32-1.49
			c-1.42-0.99-2.13-1.94-2.13-2.85c0-0.99,0.74-2.03,2.21-3.12c1.93-1.36,6.86-5.47,14.81-12.33c6.92-6.14,13.28-11.52,19.06-16.13
			c5.9-4.7,14.98-13.15,27.23-25.35c4.08-4.07,6.69-6.6,7.83-7.59c1.59-1.44,2.72-2.69,3.4-3.73c0.68-1.04,1.19-1.74,1.53-2.1
			c0.34-0.36,0.91-0.54,1.7-0.54c1.36,0,2.83,0.54,4.43,1.63c1.59,1.08,2.38,2.22,2.38,3.39c0,0.27-0.34,0.86-1.02,1.76
			c-0.79,1.27-1.25,2.76-1.36,4.47c-0.23,2.98-0.34,15.36-0.34,37.14c0,3.71,0.06,6.37,0.17,8l3.4-0.54
			c6.81-1.08,12.42-1.85,16.85-2.3c0.91-0.09,1.67-0.68,2.3-1.76c0.62-1.08,1.28-1.63,1.96-1.63c1.25,0,2.52,0.57,3.83,1.69
			c1.3,1.13,1.96,2.28,1.96,3.46c0,1.54-0.79,2.6-2.38,3.19c-1.59,0.59-4.6,1.06-9.02,1.42l-13.28,1.22l-5.11,0.54
			c0.79,9.31,2.32,18.21,4.6,26.71c0.79,3.52,1.19,5.69,1.19,6.51C118.73,149.55,118.07,150.47,116.77,151.33z M91.41,79.49
			c-5.96,5.29-12.4,10.91-19.32,16.88c-10.44,8.95-19.69,17.04-27.74,24.26l11.57-2.03c6.24-0.9,10.49-1.58,12.76-2.03
			c6.81-1.26,14.75-2.58,23.83-3.93l10.72-1.76c-0.34-3.52-0.51-6.28-0.51-8.27c0-5.96,0.08-12.61,0.26-19.93
			c0.17-7.32,0.31-11.93,0.43-13.83C101.37,70.66,97.37,74.2,91.41,79.49z"/>
		<path class="st2" d="M112.26,153.12c-2.68,0-4.6-3.28-5.85-10.03c-1.17-6.31-2.22-14.95-3.11-25.69
			c-2.88,0.39-7.56,1.16-13.92,2.3c-6.69,1.2-13.04,2.41-18.88,3.59c-20.65,4.11-31.98,6.11-34.65,6.11c-0.91,0-2.09-0.52-3.61-1.58
			c-1.57-1.1-2.34-2.17-2.34-3.26c0-1.17,0.79-2.33,2.42-3.52c1.92-1.35,6.89-5.49,14.78-12.31c6.88-6.11,13.3-11.54,19.08-16.15
			c5.86-4.66,15-13.18,27.19-25.31c4.07-4.05,6.71-6.61,7.85-7.61c1.54-1.41,2.66-2.63,3.31-3.63c0.71-1.07,1.22-1.78,1.59-2.17
			c0.44-0.46,1.13-0.7,2.07-0.7c1.46,0,3.04,0.58,4.71,1.71c1.73,1.18,2.6,2.46,2.6,3.8c0,0.3-0.14,0.76-1.12,2.06
			c-0.72,1.16-1.16,2.58-1.26,4.2c-0.23,2.94-0.34,15.42-0.34,37.11c0,3.29,0.05,5.79,0.14,7.42l2.86-0.46
			c6.77-1.08,12.45-1.85,16.88-2.31c0.74-0.07,1.37-0.57,1.92-1.51c0.71-1.25,1.52-1.88,2.39-1.88c1.36,0,2.76,0.61,4.16,1.82
			c1.41,1.23,2.13,2.52,2.13,3.83c0,1.74-0.94,3-2.71,3.65c-1.65,0.61-4.64,1.08-9.15,1.45l-13.27,1.22l-4.61,0.49
			c0.8,9.06,2.32,17.85,4.54,26.13c0.81,3.62,1.21,5.79,1.21,6.64c0,1.17-0.73,2.24-2.18,3.2l0,0
			C115.66,152.66,114.05,153.12,112.26,153.12z M104.2,116.27l0.04,0.52c0.9,10.95,1.96,19.73,3.14,26.11
			c1.12,6.03,2.8,9.22,4.87,9.22c1.59,0,3.02-0.41,4.24-1.21c1.15-0.76,1.73-1.55,1.73-2.36c0-0.76-0.4-2.92-1.18-6.4
			c-2.26-8.46-3.81-17.48-4.61-26.77l-0.04-0.49l5.59-0.59l13.28-1.22c4.36-0.36,7.35-0.82,8.89-1.39c1.38-0.51,2.06-1.4,2.06-2.72
			c0-1.02-0.6-2.05-1.78-3.08c-1.21-1.04-2.38-1.57-3.5-1.57c-0.61,0-1.16,0.75-1.52,1.38c-0.71,1.23-1.61,1.91-2.68,2.01
			c-4.4,0.45-10.06,1.22-16.82,2.3l-3.94,0.63l-0.04-0.54c-0.12-1.64-0.17-4.27-0.17-8.03c0-22.02,0.11-34.18,0.34-37.18
			c0.12-1.78,0.6-3.37,1.44-4.7c0.88-1.17,0.94-1.48,0.94-1.51c0-0.98-0.73-1.98-2.17-2.96c-1.5-1.02-2.89-1.54-4.14-1.54
			c-0.65,0-1.1,0.13-1.34,0.39c-0.32,0.34-0.81,1.02-1.48,2.03c-0.7,1.07-1.87,2.35-3.49,3.82c-1.13,0.99-3.76,3.54-7.81,7.58
			c-12.21,12.16-21.39,20.7-27.27,25.39c-5.76,4.59-12.17,10.01-19.04,16.11c-7.92,6.85-12.92,11.01-14.85,12.37
			c-1.32,0.97-2,1.89-2,2.71c0,0.72,0.66,1.56,1.91,2.44c1.65,1.16,2.56,1.4,3.03,1.4c2.57,0,14.16-2.05,34.45-6.09
			c5.84-1.18,12.2-2.39,18.9-3.59c6.77-1.21,11.65-2.01,14.49-2.38L104.2,116.27z M42.72,121.42l1.3-1.17
			c8.07-7.24,17.4-15.41,27.75-24.27C78.71,90,85.2,84.33,91.08,79.11l0,0c5.96-5.29,9.96-8.83,12-10.64l0.9-0.8l-0.07,1.2
			c-0.11,1.89-0.25,6.41-0.42,13.81c-0.17,7.28-0.26,13.98-0.26,19.92c0,1.97,0.17,4.73,0.51,8.22l0.04,0.47l-11.18,1.84
			c-9.03,1.35-17.04,2.67-23.82,3.93c-2.26,0.45-6.57,1.14-12.78,2.04L42.72,121.42z M91.74,79.86
			c-5.88,5.22-12.38,10.9-19.32,16.88c-9.79,8.39-18.67,16.15-26.43,23.09l9.85-1.73c6.22-0.9,10.5-1.58,12.75-2.03
			c6.8-1.26,14.82-2.59,23.85-3.94l10.25-1.69c-0.31-3.3-0.47-5.94-0.47-7.85c0-5.95,0.09-12.66,0.26-19.94
			c0.14-6.16,0.26-10.33,0.37-12.65C100.63,71.98,96.93,75.26,91.74,79.86L91.74,79.86z"/>
	</g>
	<g>
		<path d="M226.2,127.27c-5.16,7.95-11.97,14.48-20.42,19.59c-8.45,5.1-17.22,7.66-26.29,7.66c-8.17,0-14.47-2.44-18.89-7.32
			c-4.43-4.88-6.64-11.21-6.64-18.98c0-9.31,1.45-18.73,4.34-28.26c2.89-9.53,6.78-18.14,11.66-25.82c-0.91,0-1.76-0.27-2.55-0.81
			c-0.79-0.54-1.19-1.22-1.19-2.03c0-1.17,0.88-2.26,2.64-3.25c1.76-0.99,3.83-1.72,6.21-2.17c0.23-0.18,0.62-0.56,1.19-1.15
			c0.57-0.59,1.36-0.88,2.38-0.88c1.13,0,2.21,0.16,3.23,0.47c1.02,0.32,1.64,0.66,1.87,1.02c3.17-0.45,6.41-0.68,9.7-0.68
			c7.71,0,14.64,1.67,20.76,5.02c6.13,3.34,10.95,7.98,14.47,13.9c3.52,5.92,5.28,12.54,5.28,19.86
			C233.95,111.37,231.37,119.32,226.2,127.27z M221.61,88.3c-3.01-4.74-6.98-8.49-11.91-11.25c-4.94-2.76-10.13-4.13-15.57-4.13
			c-2.61,0-6.07,0.27-10.38,0.81l-3.57,0.41c-5.22,7.41-9.28,16.13-12.17,26.16s-4.34,19.3-4.34,27.79c0,5.69,1.39,10.37,4.17,14.03
			c2.78,3.66,7.17,5.49,13.19,5.49c6.92,0,13.9-2.33,20.93-6.98c7.03-4.65,12.82-10.42,17.36-17.28c4.54-6.87,6.81-13.42,6.81-19.66
			C226.12,98.17,224.61,93.04,221.61,88.3z"/>
		<path class="st2" d="M179.49,155.02c-8.28,0-14.76-2.52-19.26-7.48c-4.49-4.95-6.77-11.45-6.77-19.31
			c0-9.31,1.47-18.87,4.36-28.41c2.81-9.25,6.6-17.74,11.28-25.25c-0.69-0.12-1.36-0.4-1.98-0.83c-0.94-0.64-1.41-1.46-1.41-2.45
			c0-1.36,0.97-2.6,2.89-3.69c1.76-1,3.86-1.74,6.24-2.2c0.17-0.15,0.49-0.45,1.05-1.03c0.66-0.69,1.58-1.03,2.74-1.03
			c1.18,0,2.31,0.17,3.38,0.5c0.94,0.29,1.56,0.6,1.93,0.96c3.1-0.43,6.3-0.64,9.5-0.64c7.76,0,14.83,1.71,21,5.08
			c6.18,3.37,11.11,8.11,14.66,14.08c3.55,5.97,5.35,12.74,5.35,20.11c0,8.01-2.63,16.13-7.83,24.13
			c-5.18,7.98-12.11,14.62-20.58,19.74C197.54,152.42,188.61,155.02,179.49,155.02z M178.63,64.33c-0.89,0-1.55,0.24-2.02,0.73
			c-0.59,0.61-0.99,1-1.24,1.2l-0.1,0.08l-0.12,0.02c-2.32,0.44-4.36,1.15-6.06,2.11c-1.58,0.89-2.38,1.84-2.38,2.82
			c0,0.64,0.32,1.17,0.97,1.62c0.7,0.48,1.47,0.73,2.27,0.73h0.91l-0.49,0.77c-4.83,7.6-8.73,16.25-11.6,25.7
			c-2.87,9.44-4.32,18.9-4.32,28.12c0,7.61,2.19,13.88,6.51,18.64c4.3,4.75,10.54,7.16,18.52,7.16c8.94,0,17.7-2.55,26.04-7.59
			c8.35-5.04,15.17-11.58,20.26-19.43l0.42,0.27l-0.42-0.27c5.08-7.83,7.66-15.77,7.66-23.58c0-7.19-1.75-13.79-5.21-19.6
			c-3.46-5.81-8.26-10.43-14.28-13.71c-6.03-3.29-12.93-4.95-20.52-4.95c-3.25,0-6.49,0.23-9.63,0.67l-0.32,0.05l-0.17-0.27
			c-0.07-0.12-0.38-0.43-1.6-0.81C180.75,64.48,179.71,64.33,178.63,64.33z M181.02,148.11c-6.15,0-10.72-1.91-13.59-5.69
			c-2.83-3.73-4.27-8.55-4.27-14.33c0-8.5,1.47-17.9,4.36-27.93c2.9-10.04,7.01-18.89,12.24-26.31l0.13-0.18l3.8-0.43
			c4.3-0.54,7.82-0.82,10.44-0.82c5.51,0,10.83,1.41,15.82,4.2c4.99,2.79,9.05,6.63,12.09,11.42h0c3.04,4.81,4.59,10.07,4.59,15.65
			c0,6.3-2.32,13.01-6.89,19.93c-4.56,6.89-10.45,12.76-17.5,17.42C195.14,145.73,188,148.11,181.02,148.11z M180.45,74.6
			c-5.1,7.29-9.13,15.98-11.97,25.83c-2.87,9.94-4.32,19.24-4.32,27.65c0,5.56,1.37,10.18,4.07,13.73
			c2.67,3.51,6.97,5.29,12.79,5.29c6.79,0,13.74-2.32,20.66-6.9c6.94-4.59,12.74-10.36,17.22-17.14c4.46-6.76,6.72-13.28,6.72-19.38
			c0-5.39-1.49-10.47-4.43-15.12c-2.95-4.65-6.9-8.38-11.74-11.08c-4.84-2.7-10-4.07-15.33-4.07c-2.58,0-6.05,0.27-10.32,0.81
			L180.45,74.6z"/>
	</g>
	<g>
		<path d="M279.56,159.67c-2.04,0-3.49-0.41-4.34-1.22c-0.85-0.81-1.28-1.76-1.28-2.85c0-1.81,2.38-2.98,7.15-3.52
			c15.54-1.81,28.51-5.4,38.89-10.78c10.38-5.38,15.57-12.63,15.57-21.76c0-10.3-7.66-15.45-22.98-15.45
			c-4.88,0-9.5,0.29-13.87,0.88c-4.37,0.59-9.67,1.47-15.91,2.64c-6.24,2.8-10.38,4.56-12.42,5.29c-2.04,0.72-3.91,1.08-5.62,1.08
			c-1.02,0-1.93-0.43-2.72-1.29c-0.8-0.86-1.19-1.83-1.19-2.91c0-1.63,0.96-2.8,2.89-3.52c3.52-1.26,6.47-2.21,8.85-2.85
			c3.74-0.99,7.49-2.26,11.23-3.8c9.76-4.07,17.59-8.27,23.49-12.61c5.9-4.34,8.85-8.86,8.85-13.56c0-3.98-1.67-6.71-5.02-8.2
			c-3.35-1.49-8.03-2.24-14.04-2.24c-9.19,0-17.99,2.08-26.38,6.24c-2.38,1.18-4.42,2.46-6.13,3.86c-1.7,1.4-2.84,2.55-3.4,3.46
			c-1.02,1.18-2.38,1.76-4.08,1.76c-3.52,0-5.28-1.22-5.28-3.66c0-1.63,2.27-4,6.81-7.12c4.54-3.12,10.47-5.85,17.79-8.2
			c7.32-2.35,15.12-3.52,23.4-3.52c8.06,0,14.32,1.38,18.81,4.13c4.48,2.76,6.72,6.8,6.72,12.13c0,4.43-2.92,9.24-8.76,14.44
			c-5.85,5.2-12.4,9.56-19.66,13.08l0.68,0.14c3.63-0.72,6.52-1.22,8.68-1.49c2.15-0.27,5.22-0.41,9.19-0.41
			c8.4,0,15.34,1.85,20.85,5.56c5.5,3.71,8.25,8.86,8.25,15.45c0,10.21-5.13,18.59-15.4,25.15c-10.27,6.55-24.48,11.54-42.63,14.98
			C283.7,159.44,281.37,159.67,279.56,159.67z"/>
		<path class="st2" d="M279.56,160.17c-2.2,0-3.73-0.44-4.69-1.36c-0.95-0.91-1.43-1.99-1.43-3.21c0-2.13,2.48-3.44,7.59-4.02
			c15.41-1.79,28.44-5.4,38.72-10.72c10.15-5.26,15.3-12.43,15.3-21.31c0-10.06-7.35-14.95-22.48-14.95c-4.83,0-9.48,0.29-13.8,0.88
			c-4.33,0.58-9.66,1.47-15.83,2.63c-6.2,2.78-10.37,4.56-12.41,5.28c-2.08,0.74-4.03,1.11-5.78,1.11c-1.16,0-2.2-0.49-3.09-1.45
			c-0.88-0.95-1.32-2.04-1.32-3.25c0-1.85,1.08-3.19,3.22-3.99c3.52-1.27,6.51-2.23,8.9-2.86c3.71-0.98,7.47-2.25,11.17-3.77
			c9.67-4.03,17.54-8.25,23.38-12.55c5.74-4.22,8.65-8.65,8.65-13.15c0-3.79-1.54-6.33-4.72-7.75c-3.27-1.46-7.92-2.19-13.84-2.19
			c-9.07,0-17.87,2.08-26.16,6.18c-2.34,1.15-4.37,2.43-6.03,3.8c-1.65,1.36-2.76,2.48-3.3,3.34c-1.16,1.35-2.66,2-4.51,2
			c-4.77,0-5.78-2.26-5.78-4.16c0-1.82,2.3-4.28,7.02-7.53c4.55-3.13,10.58-5.91,17.92-8.27c7.34-2.35,15.26-3.55,23.56-3.55
			c8.11,0,14.53,1.42,19.07,4.21c4.62,2.84,6.96,7.07,6.96,12.56c0,4.56-3,9.54-8.93,14.81c-5.21,4.63-11.05,8.65-17.4,11.96
			c2.72-0.52,4.97-0.89,6.71-1.11c2.17-0.27,5.28-0.41,9.25-0.41c8.46,0,15.56,1.9,21.13,5.64c5.62,3.79,8.47,9.13,8.47,15.87
			c0,10.35-5.26,18.95-15.63,25.57c-10.27,6.55-24.68,11.62-42.81,15.05C283.76,159.94,281.39,160.17,279.56,160.17z M312.58,103.59
			c15.58,0,23.48,5.37,23.48,15.95c0,9.29-5.33,16.76-15.84,22.2c-10.39,5.38-23.53,9.02-39.06,10.83c-4.39,0.5-6.71,1.55-6.71,3.03
			c0,0.95,0.37,1.76,1.12,2.49c1.45,1.39,5.09,1.33,10.89,0.41c17.99-3.41,32.28-8.42,42.44-14.91
			c10.07-6.42,15.17-14.74,15.17-24.72c0-6.39-2.7-11.45-8.03-15.04c-5.4-3.63-12.32-5.47-20.57-5.47c-3.93,0-7,0.14-9.13,0.4
			c-2.13,0.27-5.04,0.77-8.65,1.49l-0.1,0.02l-2.24-0.45l1.34-0.65c7.19-3.49,13.76-7.86,19.54-13.01c5.7-5.07,8.6-9.8,8.6-14.06
			c0-5.19-2.12-9.02-6.48-11.71c-4.38-2.69-10.62-4.06-18.54-4.06c-8.19,0-16.01,1.18-23.25,3.5c-7.24,2.33-13.18,5.06-17.65,8.14
			c-5.45,3.74-6.59,5.71-6.59,6.7c0,0.78,0,3.16,4.78,3.16c1.57,0,2.78-0.52,3.71-1.59c0.55-0.89,1.7-2.06,3.46-3.51
			c1.72-1.42,3.82-2.74,6.22-3.93c8.43-4.17,17.38-6.29,26.6-6.29c6.06,0,10.85,0.77,14.24,2.28c3.53,1.57,5.32,4.49,5.32,8.66
			c0,4.84-3.05,9.54-9.05,13.96c-5.91,4.34-13.84,8.6-23.59,12.67c-3.75,1.54-7.55,2.82-11.3,3.82c-2.36,0.63-5.33,1.58-8.81,2.83
			c-1.72,0.65-2.56,1.64-2.56,3.05c0,0.96,0.35,1.81,1.06,2.57c0.7,0.76,1.47,1.13,2.36,1.13c1.64,0,3.47-0.36,5.45-1.06
			c2.02-0.71,6.19-2.49,12.39-5.27l0.11-0.04c6.21-1.17,11.57-2.06,15.94-2.65C303.01,103.89,307.7,103.59,312.58,103.59z"/>
	</g>
</g>
<g class="st3">
	<path d="M10.46,29.07c0.05,0.15,0.06,0.25,0.01,0.28c-0.04,0.03-0.09,0.04-0.15,0.01c-0.05-0.03-0.11-0.07-0.19-0.13
		c-0.23-0.17-0.47-0.28-0.73-0.33c-0.25-0.05-0.47-0.01-0.64,0.11c-0.46,0.33-0.56,0.87-0.32,1.62s0.66,1.55,1.25,2.37
		c0.19-0.15,0.38-0.34,0.59-0.56c0.21-0.22,0.35-0.37,0.42-0.44c0.39-0.43,0.66-0.7,0.81-0.8c0.13-0.09,0.24-0.08,0.32,0.04
		c0.07,0.09,0.12,0.2,0.15,0.33s0.01,0.23-0.06,0.28c-0.06,0.05-0.14,0.08-0.22,0.1c-0.12,0.03-0.26,0.09-0.41,0.21
		c-0.11,0.07-0.3,0.26-0.57,0.56l-0.7,0.68c0.12,0.16,0.46,0.6,1.03,1.31c0.88,1.1,1.57,1.99,2.06,2.67
		c0.09,0.12,0.14,0.22,0.14,0.29c0.01,0.07-0.03,0.13-0.1,0.18c-0.09,0.07-0.2,0.06-0.32-0.01s-0.23-0.17-0.32-0.3
		c-0.54-0.75-1.42-1.89-2.67-3.42l-0.24-0.3c-0.05,0.04-0.19,0.19-0.44,0.45s-0.43,0.43-0.56,0.52c-0.07,0.05-0.14,0.08-0.22,0.08
		s-0.13-0.03-0.18-0.09C8.1,34.62,8.1,34.5,8.21,34.41c0.16-0.13,0.36-0.29,0.58-0.48c0.22-0.2,0.39-0.35,0.5-0.47
		c-0.76-1.07-1.24-2.04-1.43-2.91s0.01-1.52,0.58-1.93c0.21-0.15,0.44-0.23,0.69-0.26c0.25-0.02,0.49,0,0.7,0.07
		c0.21,0.07,0.37,0.17,0.46,0.29C10.35,28.8,10.41,28.92,10.46,29.07z"/>
	<path d="M17.24,31.41c0.05,0.47-0.02,0.94-0.19,1.43c-0.17,0.48-0.48,0.88-0.93,1.2c-0.44,0.31-0.84,0.42-1.22,0.33
		c-0.38-0.09-0.7-0.32-0.96-0.67c-0.22-0.31-0.44-0.74-0.66-1.28c-0.22-0.54-0.35-1.07-0.4-1.58c-0.01-0.04-0.02-0.17-0.04-0.4
		s-0.01-0.44,0.04-0.61c0.05-0.17,0.15-0.3,0.28-0.4c0.06-0.04,0.12-0.07,0.19-0.07c0.07-0.01,0.12,0.01,0.15,0.06
		c0.01,0.01,0.01,0.06,0.01,0.13c0,0.07,0,0.13,0,0.17c-0.03,0.43-0.02,0.82,0.03,1.17c0.05,0.46,0.15,0.89,0.28,1.29
		c0.13,0.4,0.34,0.79,0.61,1.17c0.37,0.51,0.86,0.55,1.49,0.1c0.29-0.21,0.5-0.49,0.63-0.84c0.13-0.35,0.18-0.7,0.16-1.05
		s-0.11-0.63-0.25-0.83c-0.16-0.23-0.38-0.37-0.65-0.43c-0.27-0.06-0.6-0.09-1-0.1c-0.26,0-0.45-0.02-0.59-0.04
		c-0.13-0.02-0.22-0.06-0.26-0.11c-0.06-0.08-0.05-0.18,0.03-0.31c0.08-0.13,0.19-0.25,0.34-0.35c0.08-0.06,0.14-0.1,0.18-0.1
		s0.06,0,0.08,0.03c0.01,0.01,0.01,0.04,0.01,0.09c0,0.05,0,0.08,0.02,0.1c0.01,0.02,0.13,0.04,0.33,0.06
		c0.41,0.03,0.79,0.09,1.12,0.19c0.33,0.1,0.61,0.29,0.82,0.59C17.07,30.59,17.19,30.95,17.24,31.41z"/>
	<path d="M19.56,25.57c-0.03,0.13-0.07,0.22-0.13,0.26c-0.04,0.03-0.1,0.04-0.17,0.04c-0.07-0.01-0.16-0.03-0.26-0.06
		c-0.09-0.03-0.19-0.04-0.3-0.04c-0.11,0.01-0.2,0.04-0.28,0.1c-0.19,0.13-0.26,0.57-0.23,1.29c0.04,0.73,0.17,1.57,0.41,2.55
		c0.11,0.15,0.26,0.33,0.44,0.54c0.18,0.22,0.31,0.38,0.4,0.48l0.31,0.37c0.07,0.09,0.1,0.19,0.11,0.28s-0.04,0.18-0.14,0.26
		c-0.11,0.08-0.29-0.02-0.53-0.29c-0.24-0.27-0.57-0.69-0.98-1.25c-0.11-0.14-0.26-0.34-0.45-0.6c-0.19-0.26-0.43-0.58-0.71-0.94
		c-0.42-0.55-0.72-0.94-0.89-1.18c-0.11-0.15-0.07-0.29,0.11-0.42c0.11-0.08,0.21-0.08,0.3,0c0.09,0.08,0.23,0.25,0.42,0.52
		l1.11,1.55c-0.16-0.64-0.26-1.22-0.29-1.75c-0.03-0.53-0.01-0.96,0.07-1.31c0.08-0.35,0.21-0.58,0.37-0.7
		c0.14-0.1,0.3-0.17,0.48-0.2c0.18-0.03,0.34-0.02,0.49,0.03c0.15,0.04,0.26,0.11,0.32,0.2C19.58,25.34,19.58,25.44,19.56,25.57z"/>
	<path d="M25.28,24.41c0.03,0.97-0.12,1.95-0.45,2.94c-0.13,0.42-0.27,0.68-0.41,0.78c-0.07,0.05-0.15,0.07-0.23,0.05
		c-0.08-0.02-0.15-0.07-0.2-0.14c-0.05-0.07-0.07-0.17-0.06-0.28c0.01-0.12,0.06-0.24,0.14-0.38c0.31-0.52,0.52-1.09,0.63-1.72
		c0.11-0.63,0.12-1.23,0.03-1.79c-0.09-0.56-0.24-0.99-0.46-1.31c-0.09-0.12-0.18-0.2-0.28-0.22c-0.1-0.02-0.21,0.01-0.34,0.1
		c-0.27,0.2-0.47,0.51-0.6,0.93c-0.13,0.43-0.19,0.91-0.18,1.44c0.01,0.41,0.06,0.87,0.16,1.38c0.1,0.51,0.26,1.01,0.47,1.51
		c0.11,0.26,0.08,0.46-0.09,0.58c-0.04,0.03-0.12,0.03-0.23-0.02c-0.11-0.04-0.19-0.1-0.24-0.16c-0.54-0.75-1.36-1.85-2.46-3.27
		c-1.1-1.43-1.73-2.24-1.9-2.43c-0.03-0.04-0.06-0.07-0.09-0.11c-0.03-0.03-0.06-0.06-0.09-0.09c-0.03-0.03-0.07-0.07-0.11-0.11
		c-0.04-0.04-0.07-0.08-0.1-0.12c-0.11-0.15-0.09-0.27,0.04-0.37c0.11-0.08,0.25-0.07,0.42,0.02c0.17,0.09,0.32,0.22,0.44,0.4
		l0.37,0.52c1.11,1.55,1.98,2.72,2.62,3.52c0.32,0.39,0.51,0.6,0.57,0.63c-0.08-0.27-0.14-0.59-0.18-0.96s-0.05-0.74-0.05-1.09
		c0.01-0.64,0.1-1.21,0.28-1.71c0.18-0.51,0.41-0.86,0.71-1.07c0.2-0.14,0.41-0.2,0.63-0.16c0.22,0.04,0.42,0.18,0.59,0.43
		C25.05,22.68,25.26,23.44,25.28,24.41z"/>
	<path d="M24.18,19.16c-0.11,0.08-0.25,0.11-0.43,0.1c-0.18-0.01-0.29-0.04-0.33-0.1c-0.05-0.07-0.07-0.16-0.04-0.28
		c0.02-0.11,0.07-0.2,0.14-0.25c0.12-0.04,0.24-0.04,0.36-0.02c0.09,0.01,0.2,0.04,0.32,0.08c0.13,0.04,0.2,0.07,0.21,0.09
		C24.47,18.88,24.4,19,24.18,19.16z M29.06,24.95c-0.03,0.08-0.08,0.14-0.16,0.18c-0.1,0.06-0.27-0.04-0.51-0.3
		c-0.25-0.26-0.68-0.77-1.3-1.54c-0.4-0.51-0.79-1.01-1.17-1.5s-0.67-0.87-0.87-1.14c-0.05-0.07-0.08-0.13-0.08-0.19
		c0-0.05,0.03-0.1,0.09-0.15c0.15-0.11,0.29-0.11,0.42-0.02c0.13,0.1,0.32,0.32,0.57,0.67l0.81,1.16c0.47,0.66,0.87,1.17,1.19,1.54
		c0.01,0.02,0.19,0.21,0.53,0.56c0.24,0.24,0.39,0.41,0.46,0.5C29.08,24.81,29.09,24.88,29.06,24.95z"/>
	<path d="M28.97,14.65c0.09,0.13,0.27,0.39,0.53,0.78c0.26,0.39,0.53,0.78,0.8,1.16c0.53,0.74,1.09,1.49,1.67,2.23
		c0.58,0.75,0.97,1.23,1.16,1.46c0.03,0.04,0.06,0.08,0.1,0.12c0.04,0.04,0.08,0.08,0.11,0.11c0.16,0.16,0.25,0.27,0.28,0.3
		c0.05,0.06,0.04,0.16-0.01,0.29c-0.05,0.13-0.1,0.21-0.16,0.24c-0.07,0.05-0.14,0.06-0.2,0.02c-0.06-0.04-0.13-0.11-0.2-0.2
		c-0.26-0.36-0.51-0.74-0.77-1.14l-0.38-0.55c-0.13-0.18-0.3-0.42-0.52-0.71c-0.22-0.29-0.41-0.53-0.56-0.73
		c0.43,1.3,0.69,2.46,0.77,3.46c0.08,1-0.12,1.67-0.61,2.02c-0.22,0.16-0.48,0.19-0.79,0.09c-0.3-0.1-0.59-0.34-0.87-0.73
		c-0.37-0.51-0.59-1.2-0.68-2.05c-0.08-0.85-0.06-1.66,0.07-2.41c0.13-0.75,0.31-1.21,0.52-1.36c0.21-0.15,0.36-0.16,0.46-0.02
		c0.07,0.09,0.11,0.22,0.13,0.38c0.02,0.16,0.03,0.32,0.03,0.47s-0.01,0.23-0.03,0.24c-0.01,0.01-0.03,0.01-0.05,0.02
		c-0.02,0-0.04,0-0.05-0.02c-0.02-0.03-0.05-0.1-0.07-0.2c-0.02-0.1-0.04-0.17-0.06-0.19c-0.02-0.03-0.04-0.05-0.06-0.06
		c-0.02-0.01-0.04,0-0.07,0.02c-0.14,0.1-0.25,0.46-0.34,1.09c-0.09,0.63-0.09,1.3,0,2.01c0.09,0.71,0.29,1.29,0.61,1.73
		c0.11,0.16,0.25,0.28,0.41,0.37c0.16,0.09,0.32,0.08,0.47-0.03c0.47-0.34,0.63-1.06,0.46-2.15c-0.17-1.09-0.47-2.26-0.9-3.5
		l-0.61-0.81c-0.54-0.71-0.82-1.08-0.85-1.13c-0.28-0.39-0.46-0.68-0.55-0.87c-0.03-0.07-0.05-0.13-0.05-0.17s0.02-0.08,0.07-0.11
		c0.07-0.05,0.15-0.07,0.24-0.08c0.1,0,0.17,0.03,0.22,0.1L28.97,14.65z"/>
	<path d="M33.61,11.33c0.09,0.13,0.27,0.39,0.53,0.78s0.53,0.78,0.8,1.16c0.53,0.74,1.09,1.49,1.67,2.23
		c0.58,0.75,0.97,1.23,1.17,1.46c0.03,0.04,0.06,0.08,0.1,0.12c0.04,0.04,0.08,0.08,0.11,0.11c0.16,0.16,0.25,0.27,0.28,0.3
		c0.05,0.06,0.04,0.16-0.01,0.29c-0.05,0.13-0.1,0.21-0.16,0.24c-0.07,0.05-0.14,0.06-0.2,0.02s-0.13-0.11-0.2-0.2
		c-0.26-0.36-0.51-0.74-0.77-1.14l-0.38-0.55c-0.13-0.18-0.3-0.42-0.52-0.71c-0.22-0.29-0.41-0.53-0.56-0.73
		c0.43,1.3,0.69,2.46,0.77,3.46s-0.12,1.67-0.61,2.02c-0.22,0.16-0.48,0.19-0.78,0.09c-0.3-0.1-0.59-0.34-0.87-0.73
		c-0.37-0.51-0.59-1.2-0.68-2.05c-0.08-0.85-0.06-1.66,0.07-2.41c0.13-0.75,0.31-1.21,0.52-1.36c0.21-0.15,0.36-0.16,0.46-0.02
		c0.06,0.09,0.11,0.22,0.13,0.38c0.02,0.17,0.03,0.32,0.03,0.47c0,0.15-0.01,0.23-0.03,0.24c-0.01,0.01-0.03,0.01-0.05,0.02
		c-0.02,0-0.04,0-0.05-0.02c-0.02-0.03-0.05-0.1-0.07-0.2c-0.02-0.1-0.04-0.17-0.06-0.19c-0.02-0.03-0.04-0.05-0.06-0.06
		c-0.02-0.01-0.04,0-0.07,0.02c-0.14,0.1-0.25,0.46-0.33,1.09c-0.09,0.63-0.09,1.3,0,2.01c0.09,0.71,0.29,1.29,0.61,1.73
		c0.11,0.16,0.25,0.28,0.41,0.37c0.16,0.09,0.32,0.08,0.47-0.03c0.47-0.34,0.63-1.06,0.46-2.15c-0.17-1.09-0.47-2.26-0.9-3.5
		l-0.61-0.81c-0.54-0.71-0.82-1.08-0.85-1.13c-0.28-0.39-0.46-0.68-0.55-0.87c-0.03-0.07-0.05-0.13-0.05-0.17
		c0-0.04,0.02-0.08,0.08-0.11c0.07-0.05,0.15-0.07,0.24-0.08c0.09,0,0.17,0.03,0.22,0.1L33.61,11.33z"/>
	<path d="M41.6,12.16c0.08,0.12,0.18,0.44,0.29,0.96c0.11,0.52,0.12,1.08,0.01,1.66c-0.11,0.59-0.41,1.06-0.92,1.43
		c-0.42,0.3-0.86,0.42-1.32,0.36c-0.47-0.06-0.89-0.36-1.28-0.9c-0.36-0.51-0.61-1.09-0.73-1.76c-0.12-0.66-0.11-1.29,0.04-1.88
		c0.15-0.58,0.43-1.02,0.83-1.31c0.24-0.17,0.48-0.26,0.73-0.28c0.24-0.01,0.44,0.08,0.58,0.29c0.16,0.23,0.19,0.54,0.09,0.94
		s-0.3,0.83-0.6,1.28c-0.29,0.46-0.63,0.88-1.02,1.26c0.14,0.35,0.31,0.68,0.51,0.96c0.27,0.38,0.57,0.61,0.9,0.69
		c0.33,0.08,0.66,0,0.99-0.24c0.5-0.36,0.78-0.83,0.84-1.41c0.06-0.58,0.03-1.17-0.09-1.77c-0.01-0.04-0.02-0.1-0.04-0.2
		c-0.02-0.1-0.02-0.16,0.01-0.17C41.48,12.03,41.53,12.06,41.6,12.16z M39.14,11.02c-0.15,0.02-0.3,0.08-0.44,0.18
		c-0.25,0.18-0.43,0.43-0.54,0.75c-0.11,0.33-0.16,0.66-0.15,0.99s0.05,0.61,0.13,0.82c0.28-0.25,0.53-0.56,0.77-0.93
		c0.23-0.37,0.4-0.72,0.51-1.05c0.11-0.32,0.12-0.54,0.05-0.64C39.4,11.04,39.29,11,39.14,11.02z"/>
	<path d="M47.49,11.89c-0.03,0.1-0.08,0.19-0.17,0.25c-0.07,0.05-0.13,0.07-0.2,0.07c-0.07,0-0.12-0.02-0.16-0.07
		c-0.19-0.27-0.47-0.69-0.83-1.28c-0.39-0.63-0.73-1.14-1.01-1.54c-0.27-0.38-0.51-0.69-0.71-0.92S44.08,8.1,44,8.16
		c-0.22,0.16-0.27,0.61-0.14,1.34c0.13,0.74,0.35,1.68,0.65,2.82l0.13,0.5c0.02,0.08,0.01,0.17-0.02,0.25
		c-0.04,0.08-0.08,0.15-0.15,0.19c-0.08,0.06-0.13,0.09-0.17,0.09c-0.04,0.01-0.08-0.02-0.13-0.08l-0.65-0.74l-1.15-1.3
		c-0.45-0.53-0.85-0.98-1.21-1.35C41.07,9.8,41,9.73,40.97,9.68c-0.07-0.1-0.08-0.21-0.04-0.33c0.04-0.12,0.12-0.22,0.23-0.3
		c0.07-0.05,0.22,0.08,0.48,0.37c0.25,0.29,0.65,0.77,1.18,1.45l0.41,0.49c0.52,0.62,0.85,1.02,0.98,1.19
		c-0.01-0.05-0.02-0.11-0.04-0.17s-0.04-0.13-0.05-0.21C43.8,11,43.58,10,43.46,9.17c-0.13-0.83-0.05-1.35,0.24-1.55
		c0.2-0.14,0.46-0.07,0.78,0.22c0.32,0.29,0.68,0.69,1.08,1.21c0.44,0.58,1.07,1.44,1.89,2.57C47.5,11.7,47.52,11.79,47.49,11.89z"
		/>
</g>
<g class="st3">
	<path d="M64.69,52.92c0.05,0.15,0.06,0.25,0.01,0.28c-0.04,0.03-0.09,0.04-0.15,0.01c-0.05-0.03-0.11-0.07-0.19-0.13
		c-0.23-0.17-0.47-0.28-0.73-0.33c-0.25-0.05-0.47-0.01-0.64,0.11c-0.46,0.33-0.56,0.87-0.32,1.62s0.66,1.55,1.25,2.37
		c0.19-0.15,0.38-0.34,0.59-0.56c0.21-0.22,0.35-0.37,0.42-0.44c0.39-0.43,0.66-0.7,0.81-0.8c0.13-0.09,0.24-0.08,0.32,0.04
		c0.07,0.09,0.12,0.2,0.15,0.33s0.01,0.23-0.06,0.28c-0.06,0.05-0.14,0.08-0.22,0.1c-0.12,0.03-0.26,0.09-0.41,0.21
		c-0.11,0.07-0.3,0.26-0.57,0.56l-0.7,0.68c0.12,0.16,0.46,0.6,1.03,1.31c0.88,1.1,1.57,1.99,2.06,2.67
		c0.09,0.12,0.14,0.22,0.14,0.29c0.01,0.07-0.03,0.13-0.1,0.18c-0.09,0.07-0.2,0.06-0.32-0.01s-0.23-0.17-0.32-0.3
		c-0.54-0.75-1.42-1.89-2.67-3.42l-0.24-0.3c-0.05,0.04-0.19,0.19-0.44,0.45s-0.43,0.43-0.56,0.52c-0.07,0.05-0.14,0.08-0.22,0.08
		s-0.13-0.03-0.18-0.09c-0.12-0.16-0.12-0.29-0.01-0.38c0.16-0.13,0.36-0.29,0.58-0.48c0.22-0.2,0.39-0.35,0.5-0.47
		c-0.76-1.07-1.24-2.04-1.43-2.91s0.01-1.52,0.58-1.93c0.21-0.15,0.44-0.23,0.69-0.26c0.25-0.02,0.49,0,0.7,0.07
		c0.21,0.07,0.37,0.17,0.46,0.29C64.58,52.65,64.64,52.76,64.69,52.92z"/>
	<path d="M71.47,55.26c0.05,0.47-0.02,0.94-0.19,1.43c-0.17,0.48-0.48,0.88-0.93,1.2c-0.44,0.31-0.84,0.42-1.22,0.33
		c-0.38-0.09-0.7-0.32-0.96-0.67c-0.22-0.31-0.44-0.74-0.66-1.28c-0.22-0.54-0.35-1.07-0.4-1.58c-0.01-0.04-0.02-0.17-0.04-0.4
		s-0.01-0.44,0.04-0.61c0.05-0.17,0.15-0.3,0.28-0.4c0.06-0.04,0.12-0.07,0.19-0.07c0.07-0.01,0.12,0.01,0.15,0.06
		c0.01,0.01,0.01,0.06,0.01,0.13c0,0.07,0,0.13,0,0.17c-0.03,0.43-0.02,0.82,0.03,1.17c0.05,0.46,0.15,0.89,0.28,1.29
		c0.13,0.4,0.34,0.79,0.61,1.17c0.37,0.51,0.86,0.55,1.49,0.1c0.29-0.21,0.5-0.49,0.63-0.84c0.13-0.35,0.18-0.7,0.16-1.05
		s-0.11-0.63-0.25-0.83c-0.16-0.23-0.38-0.37-0.65-0.43c-0.27-0.06-0.6-0.09-1-0.1c-0.26,0-0.45-0.02-0.59-0.04
		c-0.13-0.02-0.22-0.06-0.26-0.11c-0.06-0.08-0.05-0.18,0.03-0.31c0.08-0.13,0.19-0.25,0.34-0.35c0.08-0.06,0.14-0.1,0.18-0.1
		s0.06,0,0.08,0.03c0.01,0.01,0.01,0.04,0.01,0.09c0,0.05,0,0.08,0.02,0.1c0.01,0.02,0.13,0.04,0.33,0.06
		c0.41,0.03,0.79,0.09,1.12,0.19c0.33,0.1,0.61,0.29,0.82,0.59C71.3,54.43,71.42,54.79,71.47,55.26z"/>
	<path d="M73.79,49.42c-0.03,0.13-0.07,0.22-0.13,0.26c-0.04,0.03-0.1,0.04-0.17,0.04c-0.07-0.01-0.16-0.03-0.26-0.06
		c-0.09-0.03-0.19-0.04-0.3-0.04c-0.11,0.01-0.2,0.04-0.28,0.1c-0.19,0.13-0.26,0.57-0.23,1.29c0.04,0.73,0.17,1.57,0.41,2.55
		c0.11,0.15,0.26,0.33,0.44,0.54c0.18,0.22,0.31,0.38,0.4,0.48l0.31,0.37c0.07,0.09,0.1,0.19,0.11,0.28s-0.04,0.18-0.14,0.26
		c-0.11,0.08-0.29-0.02-0.53-0.29c-0.24-0.27-0.57-0.69-0.98-1.25c-0.11-0.14-0.26-0.34-0.45-0.6c-0.19-0.26-0.43-0.58-0.71-0.94
		c-0.42-0.55-0.72-0.94-0.89-1.18c-0.11-0.15-0.07-0.29,0.11-0.42c0.11-0.08,0.21-0.08,0.3,0c0.09,0.08,0.23,0.25,0.42,0.52
		l1.11,1.55c-0.16-0.64-0.26-1.22-0.29-1.75c-0.03-0.53-0.01-0.96,0.07-1.31c0.08-0.35,0.21-0.58,0.37-0.7
		c0.14-0.1,0.3-0.17,0.48-0.2c0.18-0.03,0.34-0.02,0.49,0.03c0.15,0.04,0.26,0.11,0.32,0.2C73.81,49.19,73.82,49.28,73.79,49.42z"/>
	<path d="M79.51,48.25c0.03,0.97-0.12,1.95-0.45,2.94c-0.13,0.42-0.27,0.68-0.41,0.78c-0.07,0.05-0.15,0.07-0.23,0.05
		c-0.08-0.02-0.15-0.07-0.2-0.14c-0.05-0.07-0.07-0.17-0.06-0.28c0.01-0.12,0.06-0.24,0.14-0.38c0.31-0.52,0.52-1.09,0.63-1.72
		c0.11-0.63,0.12-1.23,0.03-1.79c-0.09-0.56-0.24-0.99-0.46-1.31c-0.09-0.12-0.18-0.2-0.28-0.22c-0.1-0.02-0.21,0.01-0.34,0.1
		c-0.27,0.2-0.47,0.51-0.6,0.93c-0.13,0.43-0.19,0.91-0.18,1.44c0.01,0.41,0.06,0.87,0.16,1.38c0.1,0.51,0.26,1.01,0.47,1.51
		c0.11,0.26,0.08,0.46-0.09,0.58c-0.04,0.03-0.12,0.03-0.23-0.02c-0.11-0.04-0.19-0.1-0.24-0.16c-0.54-0.75-1.36-1.85-2.46-3.27
		c-1.1-1.43-1.73-2.24-1.9-2.43c-0.03-0.04-0.06-0.07-0.09-0.11c-0.03-0.03-0.06-0.06-0.09-0.09c-0.03-0.03-0.07-0.07-0.11-0.11
		c-0.04-0.04-0.07-0.08-0.1-0.12c-0.11-0.15-0.09-0.27,0.04-0.37c0.11-0.08,0.25-0.07,0.42,0.02c0.17,0.09,0.32,0.22,0.44,0.4
		l0.37,0.52c1.11,1.55,1.98,2.72,2.62,3.52c0.32,0.39,0.51,0.6,0.57,0.63c-0.08-0.27-0.14-0.59-0.18-0.96s-0.05-0.74-0.05-1.09
		c0.01-0.64,0.1-1.21,0.28-1.71c0.18-0.51,0.41-0.86,0.71-1.07c0.2-0.14,0.41-0.2,0.63-0.16c0.22,0.04,0.42,0.18,0.59,0.43
		C79.28,46.52,79.49,47.28,79.51,48.25z"/>
	<path d="M78.41,43c-0.11,0.08-0.25,0.11-0.43,0.1c-0.18-0.01-0.29-0.04-0.33-0.1c-0.05-0.07-0.07-0.16-0.04-0.28
		c0.02-0.11,0.07-0.2,0.14-0.25c0.12-0.04,0.24-0.04,0.36-0.02c0.09,0.01,0.2,0.04,0.32,0.08c0.13,0.04,0.2,0.07,0.21,0.09
		C78.7,42.72,78.63,42.85,78.41,43z M83.29,48.8c-0.03,0.08-0.08,0.14-0.16,0.18c-0.1,0.06-0.27-0.04-0.51-0.3
		c-0.25-0.26-0.68-0.77-1.3-1.54c-0.4-0.51-0.79-1.01-1.17-1.5s-0.67-0.87-0.87-1.14c-0.05-0.07-0.08-0.13-0.08-0.19
		c0-0.05,0.03-0.1,0.09-0.15c0.15-0.11,0.29-0.11,0.42-0.02c0.13,0.1,0.32,0.32,0.57,0.67l0.81,1.16c0.47,0.66,0.87,1.17,1.19,1.54
		c0.01,0.02,0.19,0.21,0.53,0.56c0.24,0.24,0.39,0.41,0.46,0.5C83.31,48.65,83.32,48.72,83.29,48.8z"/>
	<path d="M83.2,38.5c0.09,0.13,0.27,0.39,0.53,0.78c0.26,0.39,0.53,0.78,0.8,1.16c0.53,0.74,1.09,1.49,1.67,2.23
		c0.58,0.75,0.97,1.23,1.16,1.46c0.03,0.04,0.06,0.08,0.1,0.12c0.04,0.04,0.08,0.08,0.11,0.11c0.16,0.16,0.25,0.27,0.28,0.3
		c0.05,0.06,0.04,0.16-0.01,0.29c-0.05,0.13-0.1,0.21-0.16,0.24c-0.07,0.05-0.14,0.06-0.2,0.02c-0.06-0.04-0.13-0.11-0.2-0.2
		c-0.26-0.36-0.51-0.74-0.77-1.14l-0.38-0.55c-0.13-0.18-0.3-0.42-0.52-0.71c-0.22-0.29-0.41-0.53-0.56-0.73
		c0.43,1.3,0.69,2.46,0.77,3.46c0.08,1-0.12,1.67-0.61,2.02c-0.22,0.16-0.48,0.19-0.79,0.09c-0.3-0.1-0.59-0.34-0.87-0.73
		c-0.37-0.51-0.59-1.2-0.68-2.05c-0.08-0.85-0.06-1.66,0.07-2.41c0.13-0.75,0.31-1.21,0.52-1.36c0.21-0.15,0.36-0.16,0.46-0.02
		c0.07,0.09,0.11,0.22,0.13,0.38c0.02,0.16,0.03,0.32,0.03,0.47s-0.01,0.23-0.03,0.24c-0.01,0.01-0.03,0.01-0.05,0.02
		c-0.02,0-0.04,0-0.05-0.02c-0.02-0.03-0.05-0.1-0.07-0.2c-0.02-0.1-0.04-0.17-0.06-0.19c-0.02-0.03-0.04-0.05-0.06-0.06
		c-0.02-0.01-0.04,0-0.07,0.02c-0.14,0.1-0.25,0.46-0.34,1.09c-0.09,0.63-0.09,1.3,0,2.01c0.09,0.71,0.29,1.29,0.61,1.73
		c0.11,0.16,0.25,0.28,0.41,0.37c0.16,0.09,0.32,0.08,0.47-0.03c0.47-0.34,0.63-1.06,0.46-2.15c-0.17-1.09-0.47-2.26-0.9-3.5
		l-0.61-0.81c-0.54-0.71-0.82-1.08-0.85-1.13c-0.28-0.39-0.46-0.68-0.55-0.87c-0.03-0.07-0.05-0.13-0.05-0.17s0.02-0.08,0.07-0.11
		c0.07-0.05,0.15-0.07,0.24-0.08c0.1,0,0.17,0.03,0.22,0.1L83.2,38.5z"/>
	<path d="M87.84,35.18c0.09,0.13,0.27,0.39,0.53,0.78s0.53,0.78,0.8,1.16c0.53,0.74,1.09,1.49,1.67,2.23
		c0.58,0.75,0.97,1.23,1.17,1.46c0.03,0.04,0.06,0.08,0.1,0.12c0.04,0.04,0.08,0.08,0.11,0.11c0.16,0.16,0.25,0.27,0.28,0.3
		c0.05,0.06,0.04,0.16-0.01,0.29c-0.05,0.13-0.1,0.21-0.16,0.24c-0.07,0.05-0.14,0.06-0.2,0.02s-0.13-0.11-0.2-0.2
		c-0.26-0.36-0.51-0.74-0.77-1.14L90.77,40c-0.13-0.18-0.3-0.42-0.52-0.71c-0.22-0.29-0.41-0.53-0.56-0.73
		c0.43,1.3,0.69,2.46,0.77,3.46s-0.12,1.67-0.61,2.02c-0.22,0.16-0.48,0.19-0.78,0.09c-0.3-0.1-0.59-0.34-0.87-0.73
		c-0.37-0.51-0.59-1.2-0.68-2.05c-0.08-0.85-0.06-1.66,0.07-2.41c0.13-0.75,0.31-1.21,0.52-1.36c0.21-0.15,0.36-0.16,0.46-0.02
		c0.06,0.09,0.11,0.22,0.13,0.38c0.02,0.17,0.03,0.32,0.03,0.47c0,0.15-0.01,0.23-0.03,0.24c-0.01,0.01-0.03,0.01-0.05,0.02
		c-0.02,0-0.04,0-0.05-0.02c-0.02-0.03-0.05-0.1-0.07-0.2c-0.02-0.1-0.04-0.17-0.06-0.19c-0.02-0.03-0.04-0.05-0.06-0.06
		c-0.02-0.01-0.04,0-0.07,0.02c-0.14,0.1-0.25,0.46-0.33,1.09c-0.09,0.63-0.09,1.3,0,2.01c0.09,0.71,0.29,1.29,0.61,1.73
		c0.11,0.16,0.25,0.28,0.41,0.37c0.16,0.09,0.32,0.08,0.47-0.03c0.47-0.34,0.63-1.06,0.46-2.15c-0.17-1.09-0.47-2.26-0.9-3.5
		l-0.61-0.81c-0.54-0.71-0.82-1.08-0.85-1.13c-0.28-0.39-0.46-0.68-0.55-0.87c-0.03-0.07-0.05-0.13-0.05-0.17
		c0-0.04,0.02-0.08,0.08-0.11c0.07-0.05,0.15-0.07,0.24-0.08c0.09,0,0.17,0.03,0.22,0.1L87.84,35.18z"/>
	<path d="M95.83,36.01c0.08,0.12,0.18,0.44,0.29,0.96c0.11,0.52,0.12,1.08,0.01,1.66c-0.11,0.59-0.41,1.06-0.92,1.43
		c-0.42,0.3-0.86,0.42-1.32,0.36c-0.47-0.06-0.89-0.36-1.28-0.9c-0.36-0.51-0.61-1.09-0.73-1.76c-0.12-0.66-0.11-1.29,0.04-1.88
		c0.15-0.58,0.43-1.02,0.83-1.31c0.24-0.17,0.48-0.26,0.73-0.28c0.24-0.01,0.44,0.08,0.58,0.29c0.16,0.23,0.19,0.54,0.09,0.94
		s-0.3,0.83-0.6,1.28c-0.29,0.46-0.63,0.88-1.02,1.26c0.14,0.35,0.31,0.68,0.51,0.96c0.27,0.38,0.57,0.61,0.9,0.69
		c0.33,0.08,0.66,0,0.99-0.24c0.5-0.36,0.78-0.83,0.84-1.41c0.06-0.58,0.03-1.17-0.09-1.77c-0.01-0.04-0.02-0.1-0.04-0.2
		c-0.02-0.1-0.02-0.16,0.01-0.17C95.71,35.88,95.76,35.91,95.83,36.01z M93.37,34.86c-0.15,0.02-0.3,0.08-0.44,0.18
		c-0.25,0.18-0.43,0.43-0.54,0.75c-0.11,0.33-0.16,0.66-0.15,0.99s0.05,0.61,0.13,0.82c0.28-0.25,0.53-0.56,0.77-0.93
		c0.23-0.37,0.4-0.72,0.51-1.05c0.11-0.32,0.12-0.54,0.05-0.64C93.63,34.89,93.52,34.85,93.37,34.86z"/>
	<path d="M101.72,35.74c-0.03,0.1-0.08,0.19-0.17,0.25c-0.07,0.05-0.13,0.07-0.2,0.07c-0.07,0-0.12-0.02-0.16-0.07
		c-0.19-0.27-0.47-0.69-0.83-1.28c-0.39-0.63-0.73-1.14-1.01-1.54c-0.27-0.38-0.51-0.69-0.71-0.92s-0.34-0.31-0.42-0.25
		c-0.22,0.16-0.27,0.61-0.14,1.34c0.13,0.74,0.35,1.68,0.65,2.82l0.13,0.5c0.02,0.08,0.01,0.17-0.02,0.25
		c-0.04,0.08-0.08,0.15-0.15,0.19c-0.08,0.06-0.13,0.09-0.17,0.09c-0.04,0.01-0.08-0.02-0.13-0.08l-0.65-0.74l-1.15-1.3
		c-0.45-0.53-0.85-0.98-1.21-1.35c-0.09-0.08-0.15-0.15-0.19-0.2c-0.07-0.1-0.08-0.21-0.04-0.33c0.04-0.12,0.12-0.22,0.23-0.3
		c0.07-0.05,0.22,0.08,0.48,0.37c0.25,0.29,0.65,0.77,1.18,1.45l0.41,0.49c0.52,0.62,0.85,1.02,0.98,1.19
		c-0.01-0.05-0.02-0.11-0.04-0.17s-0.04-0.13-0.05-0.21c-0.3-1.16-0.51-2.16-0.64-2.99c-0.13-0.83-0.05-1.35,0.24-1.55
		c0.2-0.14,0.46-0.07,0.78,0.22c0.32,0.29,0.68,0.69,1.08,1.21c0.44,0.58,1.07,1.44,1.89,2.57
		C101.73,35.55,101.75,35.64,101.72,35.74z"/>
</g>
<g id="title">
	<path class="st4" d="M154.37,178.13c-0.54,0.07-1.82,0.37-3.83,0.89s-3.49,0.94-4.43,1.24c0,0.51,0.01,1.59,0.02,3.23
		c0.01,1.64,0.04,3.04,0.07,4.18c0.02,0.44,0.06,0.93,0.13,1.47c0.07,0.54,0.11,0.92,0.13,1.15c0.12,0.84,0.17,1.34,0.17,1.5
		c0,0.26-0.1,0.63-0.3,1.14c-0.2,0.5-0.37,0.75-0.5,0.75c-0.14,0-0.26-0.08-0.38-0.24s-0.19-0.36-0.23-0.59
		c-0.19-1.05-0.33-2.75-0.41-5.11c-0.1-2.87-0.15-5.11-0.15-6.71c-0.12,0.02-0.3,0.06-0.56,0.12c-0.26,0.06-0.49,0.1-0.68,0.12
		c-0.19,0-0.39-0.06-0.61-0.17c-0.21-0.12-0.32-0.26-0.32-0.42c0-0.19,0.05-0.33,0.16-0.42c0.1-0.09,0.23-0.17,0.36-0.23
		c0.13-0.06,0.23-0.1,0.29-0.12c0.69-0.35,1.15-0.57,1.39-0.67l-0.24-7.8c-1.42,0.28-2.47,0.42-3.15,0.42
		c-0.75,0-1.27-0.22-1.56-0.66c-0.27-0.44-0.4-0.85-0.41-1.22c0-0.21,0.13-0.32,0.38-0.32c0.04,0,0.26,0.08,0.68,0.25
		c0.41,0.16,0.78,0.24,1.08,0.24c0.62,0,1.6-0.12,2.95-0.35c0-0.05,0.01-0.23,0.03-0.54c0.02-0.31,0.11-0.6,0.26-0.86
		c0.1-0.21,0.18-0.35,0.26-0.42c0.08-0.07,0.16-0.1,0.26-0.1c0.37,0,0.55,0.49,0.55,1.47c0.27-0.07,0.88-0.21,1.83-0.42
		s2.05-0.41,3.28-0.6c1.23-0.19,2.3-0.28,3.21-0.28c0.73,0,1.1,0.17,1.1,0.52c0,0.28-0.08,0.64-0.25,1.08
		c-0.16,0.44-0.35,0.67-0.56,0.67c-0.08,0-0.15-0.05-0.23-0.16c-0.08-0.1-0.14-0.17-0.17-0.19c-0.17-0.09-0.42-0.14-0.75-0.14
		c-0.6,0-1.79,0.15-3.57,0.46c-1.78,0.3-3.07,0.56-3.86,0.77l0.21,7.59c1.04-0.33,2.64-0.77,4.79-1.33s3.42-0.84,3.78-0.84
		c0.15,0,0.26,0.03,0.32,0.09c0.06,0.06,0.09,0.18,0.09,0.37C155.01,177.66,154.79,178.05,154.37,178.13z"/>
	<path class="st4" d="M167.11,185.11c-0.56,1.19-1.35,2.21-2.37,3.06c-1.02,0.85-2.19,1.28-3.49,1.28c-1.29,0-2.24-0.43-2.86-1.29
		c-0.62-0.86-0.93-1.93-0.93-3.22c0-1.12,0.17-2.5,0.5-4.16c0.34-1.66,0.81-3.13,1.43-4.44c0.04-0.09,0.2-0.44,0.48-1.03
		c0.28-0.59,0.59-1.05,0.94-1.36c0.35-0.32,0.71-0.47,1.1-0.47c0.17,0,0.33,0.05,0.48,0.16c0.14,0.11,0.22,0.24,0.22,0.4
		c0,0.05-0.05,0.16-0.16,0.33c-0.11,0.17-0.19,0.31-0.25,0.4c-0.65,0.96-1.18,1.9-1.59,2.83c-0.54,1.19-0.96,2.37-1.25,3.53
		c-0.3,1.17-0.45,2.44-0.45,3.81c0,1.84,0.93,2.76,2.77,2.76c0.87,0,1.67-0.3,2.41-0.91c0.74-0.61,1.33-1.35,1.77-2.22
		c0.44-0.87,0.66-1.67,0.66-2.39c0-0.82-0.22-1.53-0.67-2.13c-0.44-0.6-1.05-1.25-1.82-1.92c-0.5-0.44-0.87-0.8-1.1-1.08
		c-0.23-0.28-0.35-0.51-0.35-0.7c0-0.28,0.16-0.51,0.49-0.68c0.33-0.17,0.71-0.26,1.15-0.26c0.25,0,0.41,0.02,0.49,0.05
		c0.08,0.04,0.12,0.1,0.12,0.19c0,0.05-0.03,0.12-0.1,0.23c-0.07,0.11-0.1,0.19-0.1,0.26c0,0.07,0.19,0.3,0.58,0.7
		c0.77,0.77,1.42,1.55,1.94,2.34c0.52,0.79,0.78,1.72,0.78,2.8C167.95,182.87,167.67,183.92,167.11,185.11z"/>
	<path class="st4" d="M179.83,175.19c-0.24,0.27-0.45,0.4-0.62,0.4c-0.13,0-0.26-0.07-0.39-0.21c-0.13-0.14-0.26-0.34-0.42-0.59
		c-0.13-0.23-0.31-0.43-0.54-0.59c-0.22-0.16-0.45-0.24-0.68-0.24c-0.56,0-1.31,0.89-2.25,2.68c-0.94,1.78-1.87,4.03-2.77,6.73
		c0.02,0.54,0.05,1.21,0.1,2.03c0.05,0.82,0.08,1.42,0.1,1.82l0.09,1.4c0,0.33-0.06,0.61-0.17,0.86c-0.11,0.24-0.33,0.37-0.63,0.37
		c-0.33,0-0.54-0.53-0.64-1.59c-0.1-1.06-0.16-2.6-0.18-4.63c-0.02-0.51-0.03-1.25-0.04-2.2s-0.04-2.1-0.07-3.43
		c-0.06-2-0.09-3.44-0.09-4.3c0-0.54,0.27-0.8,0.81-0.8c0.33,0,0.52,0.17,0.59,0.51c0.07,0.34,0.1,0.99,0.1,1.94l0,5.56
		c0.58-1.79,1.2-3.35,1.88-4.65c0.67-1.3,1.33-2.3,1.98-2.99c0.64-0.69,1.22-1.03,1.72-1.03c0.42,0,0.83,0.12,1.21,0.35
		c0.38,0.23,0.69,0.53,0.93,0.89c0.23,0.36,0.35,0.71,0.35,1.03C180.19,174.68,180.07,174.92,179.83,175.19z"/>
	<path class="st4" d="M192.68,182.14c-1.31,2.34-2.97,4.41-4.99,6.21c-0.85,0.77-1.48,1.15-1.91,1.16c-0.21,0-0.38-0.09-0.52-0.28
		c-0.14-0.19-0.2-0.41-0.2-0.67c0-0.26,0.09-0.51,0.27-0.77c0.18-0.26,0.46-0.48,0.82-0.67c1.33-0.7,2.54-1.71,3.64-3.03
		c1.1-1.32,1.95-2.71,2.57-4.18c0.61-1.47,0.92-2.76,0.92-3.88c0-0.44-0.08-0.77-0.25-1s-0.43-0.33-0.79-0.33
		c-0.81,0-1.64,0.4-2.48,1.19c-0.85,0.79-1.64,1.83-2.37,3.11c-0.56,0.98-1.1,2.16-1.62,3.53c-0.52,1.38-0.91,2.83-1.18,4.37
		c-0.15,0.82-0.48,1.23-0.98,1.23c-0.13,0-0.28-0.15-0.43-0.44c-0.16-0.29-0.23-0.55-0.23-0.79c0-2.7-0.08-6.68-0.24-11.92
		c-0.16-5.25-0.26-8.24-0.32-8.99c0-0.14-0.01-0.27-0.03-0.4c-0.02-0.13-0.04-0.25-0.06-0.37c-0.02-0.14-0.04-0.29-0.06-0.44
		c-0.02-0.15-0.03-0.3-0.03-0.44c0-0.54,0.2-0.8,0.61-0.8c0.33,0,0.59,0.25,0.8,0.75c0.2,0.5,0.3,1.07,0.3,1.7l0,1.85
		c0,5.55,0.07,9.81,0.21,12.8c0.08,1.47,0.16,2.29,0.23,2.45c0.21-0.77,0.54-1.63,0.99-2.59c0.45-0.96,0.93-1.84,1.43-2.66
		c0.9-1.49,1.89-2.69,2.94-3.59c1.06-0.9,2.02-1.35,2.89-1.35c0.6,0,1.08,0.23,1.46,0.7c0.38,0.47,0.56,1.14,0.56,2.03
		C194.64,177.63,193.98,179.8,192.68,182.14z"/>
	<path class="st4" d="M197.87,167.82c-0.33,0-0.66-0.16-1-0.49c-0.34-0.33-0.51-0.59-0.51-0.8c0-0.26,0.1-0.5,0.3-0.73
		c0.2-0.23,0.41-0.35,0.62-0.35c0.29,0.12,0.53,0.3,0.72,0.56c0.15,0.19,0.33,0.43,0.52,0.73c0.19,0.3,0.29,0.49,0.29,0.56
		C198.82,167.64,198.5,167.82,197.87,167.82z M199.31,189.83c-0.16,0.13-0.35,0.18-0.56,0.16c-0.27-0.02-0.47-0.55-0.59-1.57
		c-0.13-1.03-0.26-2.97-0.39-5.84c-0.08-1.89-0.15-3.74-0.21-5.54c-0.06-1.81-0.1-3.2-0.12-4.18c0-0.26,0.03-0.45,0.1-0.58
		c0.07-0.13,0.2-0.19,0.39-0.19c0.44,0,0.72,0.22,0.84,0.66c0.12,0.44,0.17,1.29,0.17,2.55l-0.03,4.13c0,2.35,0.06,4.24,0.18,5.66
		c0,0.07,0.09,0.82,0.26,2.24c0.14,0.98,0.2,1.63,0.2,1.96C199.56,189.52,199.47,189.7,199.31,189.83z"/>
	<path class="st4" d="M213.55,165.25c0,0.47-0.02,1.38-0.06,2.75c-0.04,1.36-0.06,2.73-0.05,4.11c0,2.66,0.05,5.37,0.15,8.13
		c0.1,2.76,0.18,4.58,0.23,5.44c0,0.14,0.01,0.29,0.03,0.46c0.02,0.16,0.04,0.31,0.06,0.45c0.08,0.65,0.12,1.05,0.12,1.19
		c0,0.23-0.14,0.45-0.42,0.66c-0.28,0.21-0.5,0.31-0.65,0.31c-0.21,0-0.35-0.1-0.42-0.3c-0.07-0.2-0.1-0.47-0.1-0.82
		c0-1.28,0.03-2.62,0.08-4.02l0.03-1.96c0-0.65-0.01-1.51-0.03-2.57c-0.02-1.06-0.05-1.95-0.09-2.67c-0.98,3.82-2.09,6.99-3.33,9.5
		c-1.24,2.51-2.58,3.76-4.03,3.76c-0.66,0-1.21-0.37-1.66-1.12c-0.45-0.74-0.68-1.82-0.68-3.22c0-1.84,0.51-3.85,1.54-6.02
		c1.03-2.17,2.2-4.04,3.52-5.6c1.32-1.56,2.29-2.34,2.93-2.34c0.62,0,0.92,0.24,0.93,0.73c0,0.33-0.09,0.71-0.27,1.14
		c-0.18,0.43-0.38,0.82-0.61,1.17c-0.22,0.35-0.35,0.52-0.39,0.52c-0.04,0-0.08-0.02-0.13-0.05c-0.05-0.03-0.07-0.08-0.07-0.12
		c0-0.12,0.05-0.31,0.14-0.59c0.1-0.28,0.14-0.47,0.14-0.56c0-0.12-0.01-0.2-0.03-0.24c-0.02-0.05-0.08-0.07-0.17-0.07
		c-0.4,0-1.13,0.67-2.18,2.01c-1.05,1.34-1.99,2.93-2.81,4.78c-0.83,1.84-1.24,3.56-1.24,5.14c0,0.56,0.1,1.08,0.29,1.57
		c0.19,0.49,0.51,0.73,0.95,0.73c1.41,0,2.71-1.44,3.91-4.32c1.2-2.88,2.24-6.15,3.13-9.81l-0.06-2.94
		c-0.06-2.59-0.09-3.96-0.09-4.13c0-1.4,0.05-2.4,0.14-3.01c0.04-0.23,0.08-0.4,0.13-0.49s0.15-0.14,0.3-0.14
		c0.19,0,0.38,0.08,0.58,0.23c0.19,0.15,0.29,0.36,0.29,0.61L213.55,165.25z"/>
	<path class="st4" d="M227.27,165.25c0,0.47-0.02,1.38-0.06,2.75c-0.04,1.36-0.06,2.73-0.05,4.11c0,2.66,0.05,5.37,0.15,8.13
		c0.1,2.76,0.18,4.58,0.23,5.44c0,0.14,0.01,0.29,0.03,0.46c0.02,0.16,0.04,0.31,0.06,0.45c0.08,0.65,0.12,1.05,0.12,1.19
		c0,0.23-0.14,0.45-0.42,0.66c-0.28,0.21-0.5,0.31-0.65,0.31c-0.21,0-0.35-0.1-0.42-0.3s-0.1-0.47-0.1-0.82
		c0-1.28,0.03-2.62,0.08-4.02l0.03-1.96c0-0.65-0.01-1.51-0.03-2.57c-0.02-1.06-0.05-1.95-0.09-2.67c-0.98,3.82-2.09,6.99-3.33,9.5
		c-1.24,2.51-2.58,3.76-4.03,3.76c-0.66,0-1.21-0.37-1.66-1.12s-0.68-1.82-0.68-3.22c0-1.84,0.51-3.85,1.54-6.02
		c1.03-2.17,2.2-4.03,3.52-5.6s2.29-2.34,2.93-2.34c0.62,0,0.92,0.24,0.93,0.73c0,0.33-0.09,0.71-0.27,1.14
		c-0.18,0.43-0.38,0.82-0.61,1.17c-0.22,0.35-0.35,0.52-0.39,0.52c-0.04,0-0.08-0.02-0.13-0.05c-0.05-0.03-0.07-0.08-0.07-0.12
		c0-0.12,0.05-0.31,0.14-0.59c0.1-0.28,0.14-0.47,0.14-0.56c0-0.12-0.01-0.2-0.03-0.24c-0.02-0.05-0.08-0.07-0.17-0.07
		c-0.4,0-1.13,0.67-2.18,2.01c-1.05,1.34-1.99,2.93-2.81,4.77c-0.83,1.84-1.24,3.56-1.24,5.14c0,0.56,0.1,1.08,0.29,1.57
		c0.19,0.49,0.51,0.73,0.95,0.73c1.41,0,2.71-1.44,3.91-4.32c1.2-2.88,2.24-6.15,3.13-9.81l-0.06-2.94
		c-0.06-2.59-0.09-3.96-0.09-4.13c0-1.4,0.05-2.4,0.14-3.01c0.04-0.23,0.08-0.4,0.13-0.49c0.05-0.09,0.15-0.14,0.3-0.14
		c0.19,0,0.38,0.08,0.58,0.23c0.19,0.15,0.29,0.36,0.29,0.61L227.27,165.25z"/>
	<path class="st4" d="M241.78,180.76c0,0.42-0.25,1.34-0.76,2.76c-0.51,1.42-1.28,2.74-2.31,3.95c-1.03,1.21-2.29,1.82-3.8,1.82
		c-1.23,0-2.26-0.46-3.09-1.4c-0.83-0.93-1.24-2.37-1.25-4.3c0-1.82,0.34-3.62,1.04-5.4c0.69-1.78,1.59-3.24,2.71-4.37
		c1.12-1.13,2.27-1.7,3.47-1.7c0.71,0,1.31,0.19,1.81,0.58c0.49,0.38,0.74,0.94,0.74,1.66c0,0.82-0.38,1.61-1.14,2.38
		c-0.76,0.77-1.75,1.45-2.96,2.03c-1.21,0.58-2.46,1-3.75,1.26c-0.23,1.07-0.35,2.12-0.34,3.15c0,1.35,0.27,2.4,0.8,3.15
		c0.53,0.75,1.29,1.12,2.27,1.12c1.48,0,2.69-0.64,3.61-1.92c0.92-1.28,1.69-2.73,2.31-4.34c0.04-0.09,0.11-0.27,0.2-0.54
		c0.1-0.27,0.18-0.4,0.26-0.4C241.71,180.24,241.78,180.41,241.78,180.76z M238.56,173.88c-0.32-0.21-0.69-0.31-1.11-0.31
		c-0.73,0-1.43,0.29-2.11,0.88c-0.67,0.58-1.24,1.28-1.69,2.1c-0.45,0.82-0.75,1.54-0.88,2.17c0.89-0.12,1.82-0.42,2.8-0.91
		c0.98-0.49,1.81-1.03,2.47-1.61c0.67-0.58,1-1.06,1-1.43C239.03,174.38,238.87,174.09,238.56,173.88z"/>
	<path class="st4" d="M253.69,190.11c-0.19,0.2-0.42,0.3-0.69,0.3c-0.19,0-0.36-0.05-0.49-0.16s-0.2-0.25-0.2-0.44
		c0-0.96,0.06-2.44,0.17-4.44c0.12-2.14,0.17-3.93,0.17-5.35c0-1.38-0.04-2.5-0.1-3.37c-0.07-0.88-0.23-1.31-0.48-1.31
		c-0.65,0-1.37,0.99-2.15,2.96c-0.78,1.97-1.67,4.56-2.67,7.78l-0.43,1.4c-0.08,0.23-0.21,0.42-0.39,0.56
		c-0.18,0.14-0.37,0.21-0.56,0.21c-0.23,0-0.39-0.02-0.46-0.07c-0.08-0.05-0.13-0.19-0.14-0.42l-0.23-2.87l-0.44-5.04
		c-0.14-2-0.3-3.75-0.5-5.25c-0.06-0.35-0.09-0.62-0.09-0.8c0-0.35,0.12-0.63,0.38-0.86c0.25-0.22,0.54-0.33,0.87-0.33
		c0.19,0,0.33,0.56,0.42,1.68c0.09,1.12,0.18,2.93,0.28,5.42l0.12,1.85c0.15,2.35,0.24,3.85,0.26,4.48c0.06-0.14,0.11-0.3,0.16-0.47
		c0.05-0.17,0.11-0.37,0.19-0.58c1.04-3.26,2.01-5.99,2.93-8.17c0.91-2.18,1.79-3.27,2.64-3.27c0.6,0,1.01,0.61,1.23,1.83
		c0.22,1.22,0.36,2.79,0.42,4.7c0.06,2.12,0.09,5.22,0.09,9.3C253.98,189.67,253.88,189.91,253.69,190.11z"/>
</g>
<g class="st3">
	<path d="M181.23,29.07c0.05,0.15,0.06,0.25,0.01,0.28c-0.04,0.03-0.09,0.04-0.15,0.01c-0.05-0.03-0.11-0.07-0.19-0.13
		c-0.23-0.17-0.47-0.28-0.73-0.33c-0.25-0.05-0.47-0.01-0.64,0.11c-0.46,0.33-0.56,0.87-0.32,1.62s0.66,1.55,1.25,2.37
		c0.19-0.15,0.38-0.34,0.59-0.56c0.21-0.22,0.35-0.37,0.42-0.44c0.39-0.43,0.66-0.7,0.81-0.8c0.13-0.09,0.24-0.08,0.32,0.04
		c0.07,0.09,0.12,0.2,0.15,0.33s0.01,0.23-0.06,0.28c-0.06,0.05-0.14,0.08-0.22,0.1c-0.12,0.03-0.26,0.09-0.41,0.21
		c-0.11,0.07-0.3,0.26-0.57,0.56l-0.7,0.68c0.12,0.16,0.46,0.6,1.03,1.31c0.88,1.1,1.57,1.99,2.06,2.67
		c0.09,0.12,0.14,0.22,0.14,0.29c0.01,0.07-0.03,0.13-0.1,0.18c-0.09,0.07-0.2,0.06-0.32-0.01s-0.23-0.17-0.32-0.3
		c-0.54-0.75-1.42-1.89-2.67-3.42l-0.24-0.3c-0.05,0.04-0.19,0.19-0.44,0.45s-0.43,0.43-0.56,0.52c-0.07,0.05-0.14,0.08-0.22,0.08
		s-0.13-0.03-0.18-0.09c-0.12-0.16-0.12-0.29-0.01-0.38c0.16-0.13,0.36-0.29,0.58-0.48c0.22-0.2,0.39-0.35,0.5-0.47
		c-0.76-1.07-1.24-2.04-1.43-2.91s0.01-1.52,0.58-1.93c0.21-0.15,0.44-0.23,0.69-0.26c0.25-0.02,0.49,0,0.7,0.07
		c0.21,0.07,0.37,0.17,0.46,0.29C181.12,28.8,181.18,28.92,181.23,29.07z"/>
	<path d="M188.01,31.41c0.05,0.47-0.02,0.94-0.19,1.43c-0.17,0.48-0.48,0.88-0.93,1.2c-0.44,0.31-0.84,0.42-1.22,0.33
		c-0.38-0.09-0.7-0.32-0.96-0.67c-0.22-0.31-0.44-0.74-0.66-1.28c-0.22-0.54-0.35-1.07-0.4-1.58c-0.01-0.04-0.02-0.17-0.04-0.4
		s-0.01-0.44,0.04-0.61c0.05-0.17,0.15-0.3,0.28-0.4c0.06-0.04,0.12-0.07,0.19-0.07c0.07-0.01,0.12,0.01,0.15,0.06
		c0.01,0.01,0.01,0.06,0.01,0.13c0,0.07,0,0.13,0,0.17c-0.03,0.43-0.02,0.82,0.03,1.17c0.05,0.46,0.15,0.89,0.28,1.29
		c0.13,0.4,0.34,0.79,0.61,1.17c0.37,0.51,0.86,0.55,1.49,0.1c0.29-0.21,0.5-0.49,0.63-0.84c0.13-0.35,0.18-0.7,0.16-1.05
		s-0.11-0.63-0.25-0.83c-0.16-0.23-0.38-0.37-0.65-0.43c-0.27-0.06-0.6-0.09-1-0.1c-0.26,0-0.45-0.02-0.59-0.04
		c-0.13-0.02-0.22-0.06-0.26-0.11c-0.06-0.08-0.05-0.18,0.03-0.31c0.08-0.13,0.19-0.25,0.34-0.35c0.08-0.06,0.14-0.1,0.18-0.1
		s0.06,0,0.08,0.03c0.01,0.01,0.01,0.04,0.01,0.09c0,0.05,0,0.08,0.02,0.1c0.01,0.02,0.13,0.04,0.33,0.06
		c0.41,0.03,0.79,0.09,1.12,0.19c0.33,0.1,0.61,0.29,0.82,0.59C187.84,30.59,187.96,30.95,188.01,31.41z"/>
	<path d="M190.33,25.57c-0.03,0.13-0.07,0.22-0.13,0.26c-0.04,0.03-0.1,0.04-0.17,0.04c-0.07-0.01-0.16-0.03-0.26-0.06
		c-0.09-0.03-0.19-0.04-0.3-0.04c-0.11,0.01-0.2,0.04-0.28,0.1c-0.19,0.13-0.26,0.57-0.23,1.29c0.04,0.73,0.17,1.57,0.41,2.55
		c0.11,0.15,0.26,0.33,0.44,0.54c0.18,0.22,0.31,0.38,0.4,0.48l0.31,0.37c0.07,0.09,0.1,0.19,0.11,0.28s-0.04,0.18-0.14,0.26
		c-0.11,0.08-0.29-0.02-0.53-0.29c-0.24-0.27-0.57-0.69-0.98-1.25c-0.11-0.14-0.26-0.34-0.45-0.6c-0.19-0.26-0.43-0.58-0.71-0.94
		c-0.42-0.55-0.72-0.94-0.89-1.18c-0.11-0.15-0.07-0.29,0.11-0.42c0.11-0.08,0.21-0.08,0.3,0c0.09,0.08,0.23,0.25,0.42,0.52
		l1.11,1.55c-0.16-0.64-0.26-1.22-0.29-1.75c-0.03-0.53-0.01-0.96,0.07-1.31c0.08-0.35,0.21-0.58,0.37-0.7
		c0.14-0.1,0.3-0.17,0.48-0.2c0.18-0.03,0.34-0.02,0.49,0.03c0.15,0.04,0.26,0.11,0.32,0.2C190.35,25.34,190.35,25.44,190.33,25.57z
		"/>
	<path d="M196.05,24.41c0.03,0.97-0.12,1.95-0.45,2.94c-0.13,0.42-0.27,0.68-0.41,0.78c-0.07,0.05-0.15,0.07-0.23,0.05
		c-0.08-0.02-0.15-0.07-0.2-0.14c-0.05-0.07-0.07-0.17-0.06-0.28c0.01-0.12,0.06-0.24,0.14-0.38c0.31-0.52,0.52-1.09,0.63-1.72
		c0.11-0.63,0.12-1.23,0.03-1.79c-0.09-0.56-0.24-0.99-0.46-1.31c-0.09-0.12-0.18-0.2-0.28-0.22c-0.1-0.02-0.21,0.01-0.34,0.1
		c-0.27,0.2-0.47,0.51-0.6,0.93c-0.13,0.43-0.19,0.91-0.18,1.44c0.01,0.41,0.06,0.87,0.16,1.38c0.1,0.51,0.26,1.01,0.47,1.51
		c0.11,0.26,0.08,0.46-0.09,0.58c-0.04,0.03-0.12,0.03-0.23-0.02c-0.11-0.04-0.19-0.1-0.24-0.16c-0.54-0.75-1.36-1.85-2.46-3.27
		c-1.1-1.43-1.73-2.24-1.9-2.43c-0.03-0.04-0.06-0.07-0.09-0.11c-0.03-0.03-0.06-0.06-0.09-0.09c-0.03-0.03-0.07-0.07-0.11-0.11
		c-0.04-0.04-0.07-0.08-0.1-0.12c-0.11-0.15-0.09-0.27,0.04-0.37c0.11-0.08,0.25-0.07,0.42,0.02c0.17,0.09,0.32,0.22,0.44,0.4
		l0.37,0.52c1.11,1.55,1.98,2.72,2.62,3.52c0.32,0.39,0.51,0.6,0.57,0.63c-0.08-0.27-0.14-0.59-0.18-0.96s-0.05-0.74-0.05-1.09
		c0.01-0.64,0.1-1.21,0.28-1.71c0.18-0.51,0.41-0.86,0.71-1.07c0.2-0.14,0.41-0.2,0.63-0.16c0.22,0.04,0.42,0.18,0.59,0.43
		C195.82,22.68,196.03,23.44,196.05,24.41z"/>
	<path d="M194.95,19.16c-0.11,0.08-0.25,0.11-0.43,0.1c-0.18-0.01-0.29-0.04-0.33-0.1c-0.05-0.07-0.07-0.16-0.04-0.28
		c0.02-0.11,0.07-0.2,0.14-0.25c0.12-0.04,0.24-0.04,0.36-0.02c0.09,0.01,0.2,0.04,0.32,0.08c0.13,0.04,0.2,0.07,0.21,0.09
		C195.24,18.88,195.16,19,194.95,19.16z M199.83,24.95c-0.03,0.08-0.08,0.14-0.16,0.18c-0.1,0.06-0.27-0.04-0.51-0.3
		c-0.25-0.26-0.68-0.77-1.3-1.54c-0.4-0.51-0.79-1.01-1.17-1.5s-0.67-0.87-0.87-1.14c-0.05-0.07-0.08-0.13-0.08-0.19
		c0-0.05,0.03-0.1,0.09-0.15c0.15-0.11,0.29-0.11,0.42-0.02c0.13,0.1,0.32,0.32,0.57,0.67l0.81,1.16c0.47,0.66,0.87,1.17,1.19,1.54
		c0.01,0.02,0.19,0.21,0.53,0.56c0.24,0.24,0.39,0.41,0.46,0.5C199.85,24.81,199.86,24.88,199.83,24.95z"/>
	<path d="M199.74,14.65c0.09,0.13,0.27,0.39,0.53,0.78c0.26,0.39,0.53,0.78,0.8,1.16c0.53,0.74,1.09,1.49,1.67,2.23
		c0.58,0.75,0.97,1.23,1.16,1.46c0.03,0.04,0.06,0.08,0.1,0.12c0.04,0.04,0.08,0.08,0.11,0.11c0.16,0.16,0.25,0.27,0.28,0.3
		c0.05,0.06,0.04,0.16-0.01,0.29c-0.05,0.13-0.1,0.21-0.16,0.24c-0.07,0.05-0.14,0.06-0.2,0.02c-0.06-0.04-0.13-0.11-0.2-0.2
		c-0.26-0.36-0.51-0.74-0.77-1.14l-0.38-0.55c-0.13-0.18-0.3-0.42-0.52-0.71c-0.22-0.29-0.41-0.53-0.56-0.73
		c0.43,1.3,0.69,2.46,0.77,3.46c0.08,1-0.12,1.67-0.61,2.02c-0.22,0.16-0.48,0.19-0.78,0.09c-0.3-0.1-0.59-0.34-0.87-0.73
		c-0.37-0.51-0.59-1.2-0.68-2.05c-0.08-0.85-0.06-1.66,0.07-2.41c0.13-0.75,0.31-1.21,0.52-1.36c0.21-0.15,0.36-0.16,0.46-0.02
		c0.07,0.09,0.11,0.22,0.13,0.38c0.02,0.16,0.03,0.32,0.03,0.47s-0.01,0.23-0.03,0.24c-0.01,0.01-0.03,0.01-0.05,0.02
		c-0.02,0-0.04,0-0.05-0.02c-0.02-0.03-0.05-0.1-0.07-0.2c-0.02-0.1-0.04-0.17-0.06-0.19c-0.02-0.03-0.04-0.05-0.06-0.06
		c-0.02-0.01-0.04,0-0.07,0.02c-0.14,0.1-0.25,0.46-0.34,1.09c-0.09,0.63-0.09,1.3,0,2.01c0.09,0.71,0.29,1.29,0.61,1.73
		c0.11,0.16,0.25,0.28,0.41,0.37c0.16,0.09,0.32,0.08,0.47-0.03c0.47-0.34,0.63-1.06,0.46-2.15c-0.17-1.09-0.47-2.26-0.9-3.5
		l-0.61-0.81c-0.54-0.71-0.82-1.08-0.85-1.13c-0.28-0.39-0.46-0.68-0.55-0.87c-0.03-0.07-0.05-0.13-0.05-0.17s0.02-0.08,0.07-0.11
		c0.07-0.05,0.15-0.07,0.24-0.08c0.1,0,0.17,0.03,0.22,0.1L199.74,14.65z"/>
	<path d="M204.38,11.33c0.09,0.13,0.27,0.39,0.53,0.78s0.53,0.78,0.8,1.16c0.53,0.74,1.09,1.49,1.67,2.23
		c0.58,0.75,0.97,1.23,1.16,1.46c0.03,0.04,0.06,0.08,0.1,0.12c0.04,0.04,0.08,0.08,0.11,0.11c0.16,0.16,0.25,0.27,0.28,0.3
		c0.05,0.06,0.04,0.16-0.01,0.29c-0.05,0.13-0.11,0.21-0.16,0.24c-0.07,0.05-0.14,0.06-0.2,0.02c-0.06-0.04-0.13-0.11-0.2-0.2
		c-0.26-0.36-0.51-0.74-0.77-1.14l-0.38-0.55c-0.13-0.18-0.3-0.42-0.52-0.71c-0.22-0.29-0.41-0.53-0.56-0.73
		c0.43,1.3,0.69,2.46,0.77,3.46c0.08,1-0.12,1.67-0.61,2.02c-0.22,0.16-0.48,0.19-0.78,0.09c-0.3-0.1-0.59-0.34-0.87-0.73
		c-0.37-0.51-0.59-1.2-0.68-2.05c-0.09-0.85-0.06-1.66,0.07-2.41c0.13-0.75,0.31-1.21,0.52-1.36c0.21-0.15,0.36-0.16,0.46-0.02
		c0.06,0.09,0.11,0.22,0.13,0.38c0.02,0.17,0.03,0.32,0.03,0.47c0,0.15-0.01,0.23-0.03,0.24c-0.01,0.01-0.03,0.01-0.05,0.02
		c-0.02,0-0.04,0-0.05-0.02c-0.02-0.03-0.05-0.1-0.07-0.2c-0.02-0.1-0.04-0.17-0.06-0.19c-0.02-0.03-0.04-0.05-0.06-0.06
		c-0.02-0.01-0.04,0-0.07,0.02c-0.14,0.1-0.25,0.46-0.33,1.09c-0.09,0.63-0.09,1.3,0,2.01c0.09,0.71,0.29,1.29,0.61,1.73
		c0.11,0.16,0.25,0.28,0.41,0.37c0.16,0.09,0.32,0.08,0.47-0.03c0.47-0.34,0.63-1.06,0.46-2.15c-0.17-1.09-0.47-2.26-0.9-3.5
		l-0.61-0.81c-0.54-0.71-0.82-1.08-0.85-1.13c-0.28-0.39-0.46-0.68-0.55-0.87c-0.03-0.07-0.05-0.13-0.05-0.17
		c0-0.04,0.02-0.08,0.08-0.11c0.06-0.05,0.14-0.07,0.24-0.08c0.1,0,0.17,0.03,0.22,0.1L204.38,11.33z"/>
	<path d="M212.37,12.16c0.08,0.12,0.18,0.44,0.29,0.96c0.11,0.52,0.12,1.08,0.01,1.66c-0.11,0.59-0.41,1.06-0.92,1.43
		c-0.42,0.3-0.86,0.42-1.32,0.36s-0.89-0.36-1.28-0.9c-0.36-0.51-0.61-1.09-0.73-1.76c-0.12-0.66-0.11-1.29,0.04-1.88
		c0.15-0.58,0.43-1.02,0.83-1.31c0.24-0.17,0.48-0.26,0.72-0.28c0.24-0.01,0.44,0.08,0.58,0.29c0.16,0.23,0.19,0.54,0.09,0.94
		s-0.3,0.83-0.6,1.28c-0.29,0.46-0.63,0.88-1.02,1.26c0.14,0.35,0.31,0.68,0.51,0.96c0.27,0.38,0.57,0.61,0.9,0.69
		c0.33,0.08,0.66,0,0.99-0.24c0.5-0.36,0.78-0.83,0.84-1.41s0.03-1.17-0.09-1.77c-0.01-0.04-0.02-0.1-0.04-0.2
		c-0.02-0.1-0.02-0.16,0.01-0.17C212.25,12.03,212.3,12.06,212.37,12.16z M209.91,11.02c-0.15,0.02-0.3,0.08-0.44,0.18
		c-0.25,0.18-0.43,0.43-0.54,0.75c-0.11,0.33-0.16,0.66-0.15,0.99s0.05,0.61,0.13,0.82c0.28-0.25,0.53-0.56,0.77-0.93
		c0.23-0.37,0.4-0.72,0.51-1.05c0.11-0.32,0.13-0.54,0.05-0.64C210.17,11.04,210.06,11,209.91,11.02z"/>
	<path d="M218.26,11.89c-0.03,0.1-0.08,0.19-0.17,0.25c-0.07,0.05-0.13,0.07-0.2,0.07c-0.07,0-0.12-0.02-0.16-0.07
		c-0.19-0.27-0.47-0.69-0.83-1.28c-0.39-0.63-0.73-1.14-1.01-1.54c-0.28-0.38-0.51-0.69-0.71-0.92s-0.34-0.31-0.42-0.25
		c-0.22,0.16-0.27,0.61-0.14,1.34c0.13,0.74,0.35,1.68,0.65,2.82l0.13,0.5c0.02,0.08,0.01,0.17-0.02,0.25
		c-0.04,0.08-0.08,0.15-0.15,0.19c-0.08,0.06-0.13,0.09-0.17,0.09c-0.04,0.01-0.08-0.02-0.13-0.08l-0.65-0.74l-1.15-1.3
		c-0.45-0.53-0.85-0.98-1.21-1.35c-0.09-0.08-0.15-0.15-0.19-0.2c-0.07-0.1-0.08-0.21-0.04-0.33c0.04-0.12,0.12-0.22,0.23-0.3
		c0.06-0.05,0.22,0.08,0.47,0.37c0.25,0.29,0.65,0.77,1.18,1.45l0.41,0.49c0.52,0.62,0.85,1.02,0.98,1.19
		c-0.01-0.05-0.02-0.11-0.04-0.17c-0.02-0.06-0.04-0.13-0.05-0.21c-0.3-1.16-0.51-2.16-0.64-2.99c-0.13-0.83-0.04-1.35,0.24-1.55
		c0.2-0.14,0.46-0.07,0.78,0.22c0.32,0.29,0.68,0.69,1.08,1.21c0.44,0.58,1.07,1.44,1.89,2.57
		C218.27,11.7,218.29,11.79,218.26,11.89z"/>
</g>
<g class="st3">
	<path d="M218.15,52.92c0.05,0.15,0.06,0.25,0.01,0.28c-0.04,0.03-0.09,0.04-0.15,0.01c-0.05-0.03-0.11-0.07-0.19-0.13
		c-0.23-0.17-0.47-0.28-0.73-0.33c-0.25-0.05-0.47-0.01-0.64,0.11c-0.46,0.33-0.56,0.87-0.32,1.62s0.66,1.55,1.25,2.37
		c0.19-0.15,0.38-0.34,0.59-0.56c0.21-0.22,0.35-0.37,0.42-0.44c0.39-0.43,0.66-0.7,0.81-0.8c0.13-0.09,0.24-0.08,0.32,0.04
		c0.07,0.09,0.12,0.2,0.15,0.33s0.01,0.23-0.06,0.28c-0.06,0.05-0.14,0.08-0.22,0.1c-0.12,0.03-0.26,0.09-0.41,0.21
		c-0.11,0.07-0.3,0.26-0.57,0.56l-0.7,0.68c0.12,0.16,0.46,0.6,1.03,1.31c0.88,1.1,1.57,1.99,2.06,2.67
		c0.09,0.12,0.14,0.22,0.14,0.29c0.01,0.07-0.03,0.13-0.1,0.18c-0.09,0.07-0.2,0.06-0.32-0.01s-0.23-0.17-0.32-0.3
		c-0.54-0.75-1.42-1.89-2.67-3.42l-0.24-0.3c-0.05,0.04-0.19,0.19-0.44,0.45s-0.43,0.43-0.56,0.52c-0.07,0.05-0.14,0.08-0.22,0.08
		s-0.13-0.03-0.18-0.09c-0.12-0.16-0.12-0.29-0.01-0.38c0.16-0.13,0.36-0.29,0.58-0.48c0.22-0.2,0.39-0.35,0.5-0.47
		c-0.76-1.07-1.24-2.04-1.43-2.91s0.01-1.52,0.58-1.93c0.21-0.15,0.44-0.23,0.69-0.26c0.25-0.02,0.49,0,0.7,0.07
		c0.21,0.07,0.37,0.17,0.46,0.29C218.04,52.65,218.1,52.76,218.15,52.92z"/>
	<path d="M224.93,55.26c0.05,0.47-0.02,0.94-0.19,1.43c-0.17,0.48-0.48,0.88-0.93,1.2c-0.44,0.31-0.84,0.42-1.22,0.33
		c-0.38-0.09-0.7-0.32-0.96-0.67c-0.22-0.31-0.44-0.74-0.66-1.28c-0.22-0.54-0.35-1.07-0.4-1.58c-0.01-0.04-0.02-0.17-0.04-0.4
		s-0.01-0.44,0.04-0.61c0.05-0.17,0.15-0.3,0.28-0.4c0.06-0.04,0.12-0.07,0.19-0.07c0.07-0.01,0.12,0.01,0.15,0.06
		c0.01,0.01,0.01,0.06,0.01,0.13c0,0.07,0,0.13,0,0.17c-0.03,0.43-0.02,0.82,0.03,1.17c0.05,0.46,0.15,0.89,0.28,1.29
		c0.13,0.4,0.34,0.79,0.61,1.17c0.37,0.51,0.86,0.55,1.49,0.1c0.29-0.21,0.5-0.49,0.63-0.84c0.13-0.35,0.18-0.7,0.16-1.05
		s-0.11-0.63-0.25-0.83c-0.16-0.23-0.38-0.37-0.65-0.43c-0.27-0.06-0.6-0.09-1-0.1c-0.26,0-0.45-0.02-0.59-0.04
		c-0.13-0.02-0.22-0.06-0.26-0.11c-0.06-0.08-0.05-0.18,0.03-0.31c0.08-0.13,0.19-0.25,0.34-0.35c0.08-0.06,0.14-0.1,0.18-0.1
		s0.06,0,0.08,0.03c0.01,0.01,0.01,0.04,0.01,0.09c0,0.05,0,0.08,0.02,0.1c0.01,0.02,0.13,0.04,0.33,0.06
		c0.41,0.03,0.79,0.09,1.12,0.19c0.33,0.1,0.61,0.29,0.82,0.59C224.77,54.43,224.88,54.79,224.93,55.26z"/>
	<path d="M227.25,49.42c-0.03,0.13-0.07,0.22-0.13,0.26c-0.04,0.03-0.1,0.04-0.17,0.04c-0.07-0.01-0.16-0.03-0.26-0.06
		c-0.09-0.03-0.19-0.04-0.3-0.04c-0.11,0.01-0.2,0.04-0.28,0.1c-0.19,0.13-0.26,0.57-0.23,1.29c0.04,0.73,0.17,1.57,0.41,2.55
		c0.11,0.15,0.26,0.33,0.44,0.54c0.18,0.22,0.31,0.38,0.4,0.48l0.31,0.37c0.07,0.09,0.1,0.19,0.11,0.28s-0.04,0.18-0.14,0.26
		c-0.11,0.08-0.29-0.02-0.53-0.29c-0.24-0.27-0.57-0.69-0.98-1.25c-0.11-0.14-0.26-0.34-0.45-0.6c-0.19-0.26-0.43-0.58-0.71-0.94
		c-0.42-0.55-0.72-0.94-0.89-1.18c-0.11-0.15-0.07-0.29,0.11-0.42c0.11-0.08,0.21-0.08,0.3,0c0.09,0.08,0.23,0.25,0.42,0.52
		l1.11,1.55c-0.16-0.64-0.26-1.22-0.29-1.75c-0.03-0.53-0.01-0.96,0.07-1.31c0.08-0.35,0.21-0.58,0.37-0.7
		c0.14-0.1,0.3-0.17,0.48-0.2c0.18-0.03,0.34-0.02,0.49,0.03c0.15,0.04,0.26,0.11,0.32,0.2C227.27,49.19,227.28,49.28,227.25,49.42z
		"/>
	<path d="M232.98,48.25c0.03,0.97-0.12,1.95-0.45,2.94c-0.13,0.42-0.27,0.68-0.41,0.78c-0.07,0.05-0.15,0.07-0.23,0.05
		c-0.08-0.02-0.15-0.07-0.2-0.14c-0.05-0.07-0.07-0.17-0.06-0.28c0.01-0.12,0.06-0.24,0.14-0.38c0.31-0.52,0.52-1.09,0.63-1.72
		c0.11-0.63,0.12-1.23,0.03-1.79c-0.09-0.56-0.24-0.99-0.46-1.31c-0.09-0.12-0.18-0.2-0.28-0.22c-0.1-0.02-0.21,0.01-0.34,0.1
		c-0.27,0.2-0.47,0.51-0.6,0.93c-0.13,0.43-0.19,0.91-0.18,1.44c0.01,0.41,0.06,0.87,0.16,1.38c0.1,0.51,0.26,1.01,0.47,1.51
		c0.11,0.26,0.08,0.46-0.09,0.58c-0.04,0.03-0.12,0.03-0.23-0.02c-0.11-0.04-0.19-0.1-0.24-0.16c-0.54-0.75-1.36-1.85-2.46-3.27
		c-1.1-1.43-1.73-2.24-1.9-2.43c-0.03-0.04-0.06-0.07-0.09-0.11c-0.03-0.03-0.06-0.06-0.09-0.09c-0.03-0.03-0.07-0.07-0.11-0.11
		c-0.04-0.04-0.07-0.08-0.1-0.12c-0.11-0.15-0.09-0.27,0.04-0.37c0.11-0.08,0.25-0.07,0.42,0.02c0.17,0.09,0.32,0.22,0.44,0.4
		l0.37,0.52c1.11,1.55,1.98,2.72,2.62,3.52c0.32,0.39,0.51,0.6,0.57,0.63c-0.08-0.27-0.14-0.59-0.18-0.96s-0.05-0.74-0.05-1.09
		c0.01-0.64,0.1-1.21,0.28-1.71c0.18-0.51,0.41-0.86,0.71-1.07c0.2-0.14,0.41-0.2,0.63-0.16c0.22,0.04,0.42,0.18,0.59,0.43
		C232.74,46.52,232.95,47.28,232.98,48.25z"/>
	<path d="M231.87,43c-0.11,0.08-0.25,0.11-0.43,0.1c-0.18-0.01-0.29-0.04-0.33-0.1c-0.05-0.07-0.07-0.16-0.04-0.28
		c0.02-0.11,0.07-0.2,0.14-0.25c0.12-0.04,0.24-0.04,0.36-0.02c0.09,0.01,0.2,0.04,0.32,0.08c0.13,0.04,0.2,0.07,0.21,0.09
		C232.16,42.72,232.09,42.85,231.87,43z M236.75,48.8c-0.03,0.08-0.08,0.14-0.16,0.18c-0.1,0.06-0.27-0.04-0.51-0.3
		c-0.25-0.26-0.68-0.77-1.3-1.54c-0.4-0.51-0.79-1.01-1.17-1.5s-0.67-0.87-0.87-1.14c-0.05-0.07-0.08-0.13-0.08-0.19
		c0-0.05,0.03-0.1,0.09-0.15c0.15-0.11,0.29-0.11,0.42-0.02c0.13,0.1,0.32,0.32,0.57,0.67l0.81,1.16c0.47,0.66,0.87,1.17,1.19,1.54
		c0.01,0.02,0.19,0.21,0.53,0.56c0.24,0.24,0.39,0.41,0.46,0.5C236.77,48.65,236.78,48.72,236.75,48.8z"/>
	<path d="M236.66,38.5c0.09,0.13,0.27,0.39,0.53,0.78c0.26,0.39,0.53,0.78,0.8,1.16c0.53,0.74,1.09,1.49,1.67,2.23
		c0.58,0.75,0.97,1.23,1.16,1.46c0.03,0.04,0.06,0.08,0.1,0.12c0.04,0.04,0.08,0.08,0.11,0.11c0.16,0.16,0.25,0.27,0.28,0.3
		c0.05,0.06,0.04,0.16-0.01,0.29c-0.05,0.13-0.1,0.21-0.16,0.24c-0.07,0.05-0.14,0.06-0.2,0.02c-0.06-0.04-0.13-0.11-0.2-0.2
		c-0.26-0.36-0.51-0.74-0.77-1.14l-0.38-0.55c-0.13-0.18-0.3-0.42-0.52-0.71c-0.22-0.29-0.41-0.53-0.56-0.73
		c0.43,1.3,0.69,2.46,0.77,3.46c0.08,1-0.12,1.67-0.61,2.02c-0.22,0.16-0.48,0.19-0.79,0.09c-0.3-0.1-0.59-0.34-0.87-0.73
		c-0.37-0.51-0.59-1.2-0.68-2.05c-0.08-0.85-0.06-1.66,0.07-2.41c0.13-0.75,0.31-1.21,0.52-1.36c0.21-0.15,0.36-0.16,0.46-0.02
		c0.07,0.09,0.11,0.22,0.13,0.38c0.02,0.16,0.03,0.32,0.03,0.47s-0.01,0.23-0.03,0.24c-0.01,0.01-0.03,0.01-0.05,0.02
		c-0.02,0-0.04,0-0.05-0.02c-0.02-0.03-0.05-0.1-0.07-0.2c-0.02-0.1-0.04-0.17-0.06-0.19c-0.02-0.03-0.04-0.05-0.06-0.06
		c-0.02-0.01-0.04,0-0.07,0.02c-0.14,0.1-0.25,0.46-0.34,1.09c-0.09,0.63-0.09,1.3,0,2.01c0.09,0.71,0.29,1.29,0.61,1.73
		c0.11,0.16,0.25,0.28,0.41,0.37c0.16,0.09,0.32,0.08,0.47-0.03c0.47-0.34,0.63-1.06,0.46-2.15c-0.17-1.09-0.47-2.26-0.9-3.5
		l-0.61-0.81c-0.54-0.71-0.82-1.08-0.85-1.13c-0.28-0.39-0.46-0.68-0.55-0.87c-0.03-0.07-0.05-0.13-0.05-0.17s0.02-0.08,0.07-0.11
		c0.07-0.05,0.15-0.07,0.24-0.08c0.1,0,0.17,0.03,0.22,0.1L236.66,38.5z"/>
	<path d="M241.3,35.18c0.09,0.13,0.27,0.39,0.53,0.78s0.53,0.78,0.8,1.16c0.53,0.74,1.09,1.49,1.67,2.23
		c0.58,0.75,0.97,1.23,1.17,1.46c0.03,0.04,0.06,0.08,0.1,0.12c0.04,0.04,0.08,0.08,0.11,0.11c0.16,0.16,0.25,0.27,0.28,0.3
		c0.05,0.06,0.04,0.16-0.01,0.29c-0.05,0.13-0.1,0.21-0.16,0.24c-0.07,0.05-0.14,0.06-0.2,0.02s-0.13-0.11-0.2-0.2
		c-0.26-0.36-0.51-0.74-0.77-1.14L244.23,40c-0.13-0.18-0.3-0.42-0.52-0.71c-0.22-0.29-0.41-0.53-0.56-0.73
		c0.43,1.3,0.69,2.46,0.77,3.46s-0.12,1.67-0.61,2.02c-0.22,0.16-0.48,0.19-0.78,0.09c-0.3-0.1-0.59-0.34-0.87-0.73
		c-0.37-0.51-0.59-1.2-0.68-2.05c-0.08-0.85-0.06-1.66,0.07-2.41c0.13-0.75,0.31-1.21,0.52-1.36c0.21-0.15,0.36-0.16,0.46-0.02
		c0.06,0.09,0.11,0.22,0.13,0.38c0.02,0.17,0.03,0.32,0.03,0.47c0,0.15-0.01,0.23-0.03,0.24c-0.01,0.01-0.03,0.01-0.05,0.02
		c-0.02,0-0.04,0-0.05-0.02c-0.02-0.03-0.05-0.1-0.07-0.2c-0.02-0.1-0.04-0.17-0.06-0.19c-0.02-0.03-0.04-0.05-0.06-0.06
		c-0.02-0.01-0.04,0-0.07,0.02c-0.14,0.1-0.25,0.46-0.33,1.09c-0.09,0.63-0.09,1.3,0,2.01c0.09,0.71,0.29,1.29,0.61,1.73
		c0.11,0.16,0.25,0.28,0.41,0.37c0.16,0.09,0.32,0.08,0.47-0.03c0.47-0.34,0.63-1.06,0.46-2.15c-0.17-1.09-0.47-2.26-0.9-3.5
		l-0.61-0.81c-0.54-0.71-0.82-1.08-0.85-1.13c-0.28-0.39-0.46-0.68-0.55-0.87c-0.03-0.07-0.05-0.13-0.05-0.17
		c0-0.04,0.02-0.08,0.08-0.11c0.07-0.05,0.15-0.07,0.24-0.08c0.09,0,0.17,0.03,0.22,0.1L241.3,35.18z"/>
	<path d="M249.3,36.01c0.08,0.12,0.18,0.44,0.29,0.96c0.11,0.52,0.12,1.08,0.01,1.66c-0.11,0.59-0.41,1.06-0.92,1.43
		c-0.42,0.3-0.86,0.42-1.32,0.36c-0.47-0.06-0.89-0.36-1.28-0.9c-0.36-0.51-0.61-1.09-0.73-1.76c-0.12-0.66-0.11-1.29,0.04-1.88
		c0.15-0.58,0.43-1.02,0.83-1.31c0.24-0.17,0.48-0.26,0.73-0.28c0.24-0.01,0.44,0.08,0.58,0.29c0.16,0.23,0.19,0.54,0.09,0.94
		s-0.3,0.83-0.6,1.28c-0.29,0.46-0.63,0.88-1.02,1.26c0.14,0.35,0.31,0.68,0.51,0.96c0.27,0.38,0.57,0.61,0.9,0.69
		c0.33,0.08,0.66,0,0.99-0.24c0.5-0.36,0.78-0.83,0.84-1.41c0.06-0.58,0.03-1.17-0.09-1.77c-0.01-0.04-0.02-0.1-0.04-0.2
		c-0.02-0.1-0.02-0.16,0.01-0.17C249.17,35.88,249.23,35.91,249.3,36.01z M246.83,34.86c-0.15,0.02-0.3,0.08-0.44,0.18
		c-0.25,0.18-0.43,0.43-0.54,0.75c-0.11,0.33-0.16,0.66-0.15,0.99s0.05,0.61,0.13,0.82c0.28-0.25,0.53-0.56,0.77-0.93
		c0.23-0.37,0.4-0.72,0.51-1.05c0.11-0.32,0.12-0.54,0.05-0.64C247.09,34.89,246.98,34.85,246.83,34.86z"/>
	<path d="M255.19,35.74c-0.03,0.1-0.08,0.19-0.17,0.25c-0.07,0.05-0.13,0.07-0.2,0.07c-0.07,0-0.12-0.02-0.16-0.07
		c-0.19-0.27-0.47-0.69-0.83-1.28c-0.39-0.63-0.73-1.14-1.01-1.54c-0.27-0.38-0.51-0.69-0.71-0.92s-0.34-0.31-0.42-0.25
		c-0.22,0.16-0.27,0.61-0.14,1.34c0.13,0.74,0.35,1.68,0.65,2.82l0.13,0.5c0.02,0.08,0.01,0.17-0.02,0.25
		c-0.04,0.08-0.08,0.15-0.15,0.19c-0.08,0.06-0.13,0.09-0.17,0.09c-0.04,0.01-0.08-0.02-0.13-0.08l-0.65-0.74l-1.15-1.3
		c-0.45-0.53-0.85-0.98-1.21-1.35c-0.09-0.08-0.15-0.15-0.19-0.2c-0.07-0.1-0.08-0.21-0.04-0.33c0.04-0.12,0.12-0.22,0.23-0.3
		c0.07-0.05,0.22,0.08,0.48,0.37c0.25,0.29,0.65,0.77,1.18,1.45l0.41,0.49c0.52,0.62,0.85,1.02,0.98,1.19
		c-0.01-0.05-0.02-0.11-0.04-0.17s-0.04-0.13-0.05-0.21c-0.3-1.16-0.51-2.16-0.64-2.99c-0.13-0.83-0.05-1.35,0.24-1.55
		c0.2-0.14,0.46-0.07,0.78,0.22c0.32,0.29,0.68,0.69,1.08,1.21c0.44,0.58,1.07,1.44,1.89,2.57
		C255.2,35.55,255.21,35.64,255.19,35.74z"/>
</g>
<g class="st3">
	<path d="M218.15,155.61c0.05,0.15,0.06,0.24,0.01,0.28c-0.04,0.03-0.09,0.04-0.15,0.01c-0.05-0.03-0.11-0.07-0.19-0.13
		c-0.23-0.17-0.47-0.28-0.73-0.33c-0.25-0.05-0.47-0.01-0.64,0.11c-0.46,0.33-0.56,0.87-0.32,1.63c0.24,0.76,0.66,1.55,1.25,2.37
		c0.19-0.15,0.38-0.34,0.59-0.56s0.35-0.37,0.42-0.44c0.39-0.43,0.66-0.7,0.81-0.8c0.13-0.09,0.24-0.08,0.32,0.04
		c0.07,0.09,0.12,0.2,0.15,0.33s0.01,0.23-0.06,0.28c-0.06,0.05-0.14,0.08-0.22,0.1c-0.12,0.03-0.26,0.09-0.41,0.21
		c-0.11,0.08-0.3,0.26-0.57,0.56l-0.7,0.68c0.12,0.16,0.46,0.6,1.03,1.31c0.88,1.1,1.57,1.99,2.06,2.67
		c0.09,0.12,0.14,0.22,0.14,0.29c0.01,0.07-0.03,0.13-0.1,0.18c-0.09,0.07-0.2,0.06-0.32-0.01s-0.23-0.17-0.32-0.3
		c-0.54-0.75-1.42-1.89-2.67-3.42l-0.24-0.3c-0.05,0.04-0.19,0.19-0.44,0.45c-0.25,0.25-0.43,0.43-0.56,0.52
		c-0.07,0.05-0.14,0.08-0.22,0.08s-0.13-0.03-0.18-0.09c-0.12-0.16-0.12-0.29-0.01-0.38c0.16-0.13,0.36-0.29,0.58-0.48
		c0.22-0.2,0.39-0.35,0.5-0.47c-0.76-1.07-1.24-2.04-1.43-2.91s0.01-1.52,0.58-1.93c0.21-0.15,0.44-0.23,0.69-0.26
		c0.25-0.02,0.49,0,0.7,0.07c0.21,0.07,0.37,0.17,0.46,0.29C218.04,155.34,218.1,155.46,218.15,155.61z"/>
	<path d="M224.93,157.95c0.05,0.47-0.02,0.94-0.19,1.43c-0.17,0.48-0.48,0.88-0.93,1.2c-0.44,0.31-0.84,0.42-1.22,0.33
		c-0.38-0.09-0.7-0.32-0.96-0.67c-0.22-0.31-0.44-0.74-0.66-1.28c-0.22-0.54-0.35-1.07-0.4-1.58c-0.01-0.04-0.02-0.17-0.04-0.4
		c-0.02-0.23-0.01-0.44,0.04-0.61c0.05-0.17,0.15-0.3,0.28-0.4c0.06-0.04,0.12-0.07,0.19-0.07c0.07,0,0.12,0.02,0.15,0.06
		c0.01,0.01,0.01,0.06,0.01,0.13c0,0.07,0,0.13,0,0.17c-0.03,0.43-0.02,0.82,0.03,1.17c0.05,0.46,0.15,0.89,0.28,1.29
		c0.13,0.4,0.34,0.79,0.61,1.17c0.37,0.51,0.86,0.55,1.49,0.1c0.29-0.21,0.5-0.49,0.63-0.84c0.13-0.35,0.18-0.7,0.16-1.05
		c-0.03-0.35-0.11-0.63-0.25-0.83c-0.16-0.23-0.38-0.37-0.65-0.44c-0.27-0.06-0.6-0.09-1-0.1c-0.26,0-0.45-0.02-0.59-0.04
		c-0.13-0.02-0.22-0.06-0.26-0.11c-0.06-0.08-0.05-0.18,0.03-0.31c0.08-0.13,0.19-0.25,0.34-0.35c0.08-0.06,0.14-0.1,0.18-0.1
		c0.03-0.01,0.06,0,0.08,0.03c0.01,0.01,0.01,0.04,0.01,0.09c0,0.04,0,0.08,0.02,0.1s0.13,0.04,0.33,0.05
		c0.41,0.03,0.79,0.09,1.12,0.19c0.33,0.1,0.61,0.29,0.82,0.59C224.77,157.13,224.88,157.48,224.93,157.95z"/>
	<path d="M227.25,152.11c-0.03,0.13-0.07,0.22-0.13,0.26c-0.04,0.03-0.1,0.04-0.17,0.04c-0.07-0.01-0.16-0.03-0.26-0.06
		c-0.09-0.03-0.19-0.04-0.3-0.04c-0.11,0.01-0.2,0.04-0.28,0.1c-0.19,0.13-0.26,0.57-0.23,1.29c0.04,0.72,0.17,1.57,0.41,2.55
		c0.11,0.15,0.26,0.33,0.44,0.54c0.18,0.22,0.31,0.38,0.4,0.48l0.31,0.37c0.07,0.09,0.1,0.19,0.11,0.28s-0.04,0.18-0.14,0.26
		c-0.11,0.08-0.29-0.02-0.53-0.29s-0.57-0.69-0.98-1.25c-0.11-0.14-0.26-0.34-0.45-0.6c-0.19-0.27-0.43-0.58-0.71-0.94
		c-0.42-0.55-0.72-0.94-0.89-1.18c-0.11-0.15-0.07-0.29,0.11-0.42c0.11-0.08,0.21-0.08,0.3,0c0.09,0.08,0.23,0.25,0.42,0.52
		l1.11,1.55c-0.16-0.64-0.26-1.22-0.29-1.75c-0.03-0.53-0.01-0.96,0.07-1.31c0.08-0.35,0.21-0.58,0.37-0.7
		c0.14-0.1,0.3-0.17,0.48-0.2c0.18-0.03,0.34-0.02,0.49,0.03c0.15,0.04,0.26,0.11,0.32,0.2
		C227.27,151.88,227.28,151.98,227.25,152.11z"/>
	<path d="M232.98,150.95c0.03,0.97-0.12,1.95-0.45,2.94c-0.13,0.42-0.27,0.68-0.41,0.78c-0.07,0.05-0.15,0.07-0.23,0.05
		c-0.08-0.02-0.15-0.07-0.2-0.14s-0.07-0.17-0.06-0.28c0.01-0.12,0.06-0.24,0.14-0.38c0.31-0.52,0.52-1.09,0.63-1.72
		c0.11-0.63,0.12-1.23,0.03-1.79c-0.09-0.56-0.24-0.99-0.46-1.31c-0.09-0.12-0.18-0.2-0.28-0.22c-0.1-0.02-0.21,0.01-0.34,0.1
		c-0.27,0.2-0.47,0.51-0.6,0.93s-0.19,0.91-0.18,1.44c0.01,0.41,0.06,0.87,0.16,1.38c0.1,0.51,0.26,1.01,0.47,1.51
		c0.11,0.26,0.08,0.46-0.09,0.58c-0.04,0.03-0.12,0.03-0.23-0.02c-0.11-0.04-0.19-0.1-0.24-0.16c-0.54-0.76-1.36-1.85-2.46-3.27
		c-1.1-1.43-1.73-2.24-1.9-2.43c-0.03-0.04-0.06-0.07-0.09-0.11s-0.06-0.06-0.09-0.09c-0.03-0.03-0.07-0.07-0.11-0.11
		c-0.04-0.04-0.07-0.08-0.1-0.12c-0.11-0.15-0.09-0.27,0.04-0.37c0.11-0.08,0.25-0.07,0.42,0.02c0.17,0.09,0.32,0.22,0.44,0.4
		l0.37,0.52c1.11,1.55,1.98,2.72,2.62,3.52c0.32,0.39,0.51,0.6,0.57,0.63c-0.08-0.27-0.14-0.59-0.18-0.96
		c-0.04-0.38-0.05-0.74-0.05-1.09c0.01-0.63,0.1-1.21,0.28-1.71c0.18-0.51,0.41-0.86,0.71-1.07c0.2-0.14,0.41-0.2,0.63-0.16
		c0.22,0.04,0.42,0.18,0.59,0.43C232.74,149.21,232.95,149.98,232.98,150.95z"/>
	<path d="M231.87,145.69c-0.11,0.08-0.25,0.11-0.43,0.1c-0.18-0.01-0.29-0.04-0.33-0.1c-0.05-0.07-0.07-0.16-0.04-0.28
		s0.07-0.2,0.14-0.25c0.12-0.04,0.24-0.04,0.36-0.02c0.09,0.02,0.2,0.04,0.32,0.08c0.13,0.04,0.2,0.07,0.21,0.09
		C232.16,145.41,232.09,145.54,231.87,145.69z M236.75,151.49c-0.03,0.08-0.08,0.13-0.16,0.18c-0.1,0.06-0.27-0.04-0.51-0.29
		s-0.68-0.77-1.3-1.54c-0.4-0.51-0.79-1.01-1.17-1.5s-0.67-0.87-0.87-1.14c-0.05-0.07-0.08-0.13-0.08-0.19
		c0-0.05,0.03-0.1,0.09-0.15c0.15-0.11,0.29-0.11,0.42-0.02c0.13,0.1,0.32,0.32,0.57,0.67l0.81,1.16c0.47,0.66,0.87,1.17,1.19,1.54
		c0.01,0.02,0.19,0.21,0.53,0.56c0.24,0.24,0.39,0.41,0.46,0.5C236.77,151.34,236.78,151.42,236.75,151.49z"/>
	<path d="M236.66,141.19c0.09,0.13,0.27,0.39,0.53,0.78c0.26,0.39,0.53,0.78,0.8,1.16c0.53,0.74,1.09,1.49,1.67,2.23
		s0.97,1.23,1.16,1.46c0.03,0.04,0.06,0.08,0.1,0.12s0.08,0.08,0.11,0.11c0.16,0.16,0.25,0.26,0.28,0.3
		c0.05,0.07,0.04,0.16-0.01,0.29c-0.05,0.13-0.1,0.21-0.16,0.24c-0.07,0.05-0.14,0.06-0.2,0.02c-0.06-0.04-0.13-0.11-0.2-0.2
		c-0.26-0.36-0.51-0.74-0.77-1.14l-0.38-0.55c-0.13-0.18-0.3-0.42-0.52-0.71c-0.22-0.29-0.41-0.53-0.56-0.73
		c0.43,1.3,0.69,2.46,0.77,3.46c0.08,1-0.12,1.67-0.61,2.02c-0.22,0.16-0.48,0.19-0.79,0.09c-0.3-0.1-0.59-0.34-0.87-0.73
		c-0.37-0.51-0.59-1.2-0.68-2.05c-0.08-0.85-0.06-1.66,0.07-2.41c0.13-0.75,0.31-1.21,0.52-1.36c0.21-0.15,0.36-0.16,0.46-0.02
		c0.07,0.09,0.11,0.22,0.13,0.38c0.02,0.17,0.03,0.32,0.03,0.47c0,0.15-0.01,0.23-0.03,0.24c-0.01,0.01-0.03,0.02-0.05,0.02
		c-0.02,0-0.04,0-0.05-0.02c-0.02-0.03-0.05-0.1-0.07-0.2c-0.02-0.1-0.04-0.17-0.06-0.19c-0.02-0.03-0.04-0.05-0.06-0.06
		c-0.02-0.01-0.04,0-0.07,0.02c-0.14,0.1-0.25,0.46-0.34,1.09c-0.09,0.63-0.09,1.3,0,2.01c0.09,0.71,0.29,1.29,0.61,1.73
		c0.11,0.16,0.25,0.28,0.41,0.37c0.16,0.09,0.32,0.08,0.47-0.03c0.47-0.34,0.63-1.06,0.46-2.15c-0.17-1.09-0.47-2.26-0.9-3.49
		l-0.61-0.81c-0.54-0.71-0.82-1.08-0.85-1.13c-0.28-0.39-0.46-0.68-0.55-0.87c-0.03-0.07-0.05-0.13-0.05-0.17
		c0-0.04,0.02-0.08,0.07-0.11c0.07-0.05,0.15-0.07,0.24-0.08c0.1,0,0.17,0.03,0.22,0.1L236.66,141.19z"/>
	<path d="M241.3,137.87c0.09,0.13,0.27,0.39,0.53,0.78c0.26,0.39,0.53,0.78,0.8,1.16c0.53,0.74,1.09,1.49,1.67,2.23
		c0.58,0.75,0.97,1.23,1.17,1.46c0.03,0.04,0.06,0.08,0.1,0.12c0.04,0.04,0.08,0.08,0.11,0.11c0.16,0.16,0.25,0.27,0.28,0.3
		c0.05,0.06,0.04,0.16-0.01,0.29c-0.05,0.13-0.1,0.21-0.16,0.24c-0.07,0.05-0.14,0.06-0.2,0.02s-0.13-0.11-0.2-0.2
		c-0.26-0.36-0.51-0.74-0.77-1.14l-0.38-0.55c-0.13-0.18-0.3-0.42-0.52-0.71c-0.22-0.29-0.41-0.53-0.56-0.72
		c0.43,1.3,0.69,2.46,0.77,3.46s-0.12,1.67-0.61,2.02c-0.22,0.16-0.48,0.19-0.78,0.09c-0.3-0.1-0.59-0.34-0.87-0.73
		c-0.37-0.51-0.59-1.2-0.68-2.05c-0.08-0.85-0.06-1.66,0.07-2.41c0.13-0.75,0.31-1.21,0.52-1.36c0.21-0.15,0.36-0.15,0.46-0.02
		c0.06,0.09,0.11,0.22,0.13,0.38c0.02,0.17,0.03,0.32,0.03,0.47c0,0.15-0.01,0.23-0.03,0.24c-0.01,0.01-0.03,0.01-0.05,0.02
		c-0.02,0-0.04,0-0.05-0.02c-0.02-0.03-0.05-0.1-0.07-0.2c-0.02-0.1-0.04-0.17-0.06-0.19c-0.02-0.03-0.04-0.05-0.06-0.06
		c-0.02-0.01-0.04,0-0.07,0.02c-0.14,0.1-0.25,0.46-0.33,1.09c-0.09,0.63-0.09,1.3,0,2.01c0.09,0.71,0.29,1.29,0.61,1.73
		c0.11,0.16,0.25,0.28,0.41,0.37c0.16,0.09,0.32,0.08,0.47-0.03c0.47-0.34,0.63-1.06,0.46-2.15c-0.17-1.1-0.47-2.26-0.9-3.5
		l-0.61-0.81c-0.54-0.71-0.82-1.08-0.85-1.13c-0.28-0.39-0.46-0.68-0.55-0.88c-0.03-0.07-0.05-0.13-0.05-0.17
		c0-0.04,0.02-0.07,0.08-0.11c0.07-0.05,0.15-0.07,0.24-0.08c0.09,0,0.17,0.03,0.22,0.1L241.3,137.87z"/>
	<path d="M249.3,138.7c0.08,0.12,0.18,0.44,0.29,0.96c0.11,0.52,0.12,1.08,0.01,1.66c-0.11,0.59-0.41,1.06-0.92,1.43
		c-0.42,0.3-0.86,0.42-1.32,0.36c-0.47-0.06-0.89-0.36-1.28-0.9c-0.36-0.51-0.61-1.09-0.73-1.76c-0.12-0.66-0.11-1.29,0.04-1.88
		c0.15-0.58,0.43-1.02,0.83-1.31c0.24-0.17,0.48-0.26,0.73-0.28c0.24-0.01,0.44,0.08,0.58,0.29c0.16,0.23,0.19,0.54,0.09,0.94
		s-0.3,0.83-0.6,1.28s-0.63,0.88-1.02,1.26c0.14,0.36,0.31,0.68,0.51,0.96c0.27,0.38,0.57,0.61,0.9,0.69s0.66,0,0.99-0.24
		c0.5-0.36,0.78-0.83,0.84-1.41c0.06-0.58,0.03-1.17-0.09-1.77c-0.01-0.04-0.02-0.1-0.04-0.2c-0.02-0.1-0.02-0.16,0.01-0.17
		C249.17,138.57,249.23,138.6,249.3,138.7z M246.83,137.55c-0.15,0.02-0.3,0.08-0.44,0.18c-0.25,0.18-0.43,0.43-0.54,0.75
		c-0.11,0.33-0.16,0.66-0.15,0.99c0.01,0.34,0.05,0.61,0.13,0.82c0.28-0.25,0.53-0.56,0.77-0.93c0.23-0.38,0.4-0.72,0.51-1.05
		c0.11-0.32,0.12-0.54,0.05-0.64C247.09,137.58,246.98,137.54,246.83,137.55z"/>
	<path d="M255.18,138.43c-0.03,0.1-0.08,0.19-0.17,0.25c-0.07,0.05-0.13,0.07-0.2,0.08c-0.07,0-0.12-0.02-0.16-0.07
		c-0.19-0.27-0.47-0.69-0.83-1.28c-0.39-0.63-0.73-1.14-1.01-1.54c-0.27-0.38-0.51-0.69-0.71-0.92c-0.2-0.23-0.34-0.31-0.42-0.25
		c-0.22,0.16-0.27,0.61-0.14,1.34s0.35,1.68,0.65,2.82l0.13,0.5c0.02,0.08,0.01,0.17-0.02,0.25c-0.04,0.08-0.08,0.15-0.15,0.2
		c-0.08,0.06-0.13,0.09-0.17,0.09c-0.04,0.01-0.08-0.02-0.13-0.08l-0.65-0.74l-1.15-1.3c-0.45-0.53-0.85-0.97-1.21-1.35
		c-0.09-0.08-0.15-0.15-0.19-0.2c-0.07-0.1-0.08-0.21-0.04-0.33c0.04-0.12,0.12-0.22,0.23-0.3c0.07-0.05,0.22,0.08,0.48,0.37
		c0.25,0.29,0.65,0.77,1.18,1.45l0.41,0.49c0.52,0.62,0.85,1.02,0.98,1.19c-0.01-0.05-0.02-0.11-0.04-0.17s-0.04-0.13-0.05-0.21
		c-0.3-1.16-0.51-2.16-0.64-2.99c-0.13-0.83-0.05-1.35,0.24-1.55c0.2-0.14,0.46-0.07,0.78,0.22c0.32,0.29,0.68,0.69,1.08,1.21
		c0.44,0.58,1.07,1.44,1.89,2.57C255.2,138.24,255.21,138.33,255.18,138.43z"/>
</g>
<g class="st3">
	<path d="M354.31,37.92c0.05,0.15,0.06,0.25,0.01,0.28c-0.04,0.03-0.09,0.04-0.15,0.01c-0.05-0.03-0.11-0.07-0.19-0.13
		c-0.23-0.17-0.47-0.28-0.73-0.33c-0.25-0.05-0.47-0.01-0.64,0.11c-0.46,0.33-0.56,0.87-0.32,1.62s0.66,1.55,1.25,2.37
		c0.19-0.15,0.38-0.34,0.59-0.56c0.21-0.22,0.35-0.37,0.42-0.44c0.39-0.43,0.66-0.7,0.81-0.8c0.13-0.09,0.24-0.08,0.32,0.04
		c0.07,0.09,0.12,0.2,0.15,0.33s0.01,0.23-0.06,0.28c-0.06,0.05-0.14,0.08-0.22,0.1c-0.12,0.03-0.26,0.09-0.41,0.21
		c-0.11,0.07-0.3,0.26-0.57,0.56l-0.7,0.68c0.12,0.16,0.46,0.6,1.03,1.31c0.88,1.1,1.57,1.99,2.06,2.67
		c0.09,0.12,0.14,0.22,0.14,0.29c0.01,0.07-0.03,0.13-0.1,0.18c-0.09,0.07-0.2,0.06-0.32-0.01s-0.23-0.17-0.32-0.3
		c-0.54-0.75-1.42-1.89-2.67-3.42l-0.24-0.3c-0.05,0.04-0.19,0.19-0.44,0.45s-0.43,0.43-0.56,0.52c-0.07,0.05-0.14,0.08-0.22,0.08
		s-0.13-0.03-0.18-0.09c-0.12-0.16-0.12-0.29-0.01-0.38c0.16-0.13,0.36-0.29,0.58-0.48c0.22-0.2,0.39-0.35,0.5-0.47
		c-0.76-1.07-1.24-2.04-1.43-2.91s0.01-1.52,0.58-1.93c0.21-0.15,0.44-0.23,0.69-0.26c0.25-0.02,0.49,0,0.7,0.07
		c0.21,0.07,0.37,0.17,0.46,0.29C354.2,37.65,354.25,37.76,354.31,37.92z"/>
	<path d="M361.08,40.26c0.05,0.47-0.02,0.94-0.19,1.43c-0.17,0.48-0.48,0.88-0.93,1.2c-0.44,0.31-0.84,0.42-1.22,0.33
		c-0.38-0.09-0.7-0.32-0.96-0.67c-0.22-0.31-0.44-0.74-0.66-1.28c-0.22-0.54-0.35-1.07-0.4-1.58c-0.01-0.04-0.02-0.17-0.04-0.4
		s-0.01-0.44,0.04-0.61c0.05-0.17,0.15-0.3,0.28-0.4c0.06-0.04,0.12-0.07,0.19-0.07c0.07-0.01,0.12,0.01,0.15,0.06
		c0.01,0.01,0.01,0.06,0.01,0.13c0,0.07,0,0.13,0,0.17c-0.03,0.43-0.02,0.82,0.03,1.17c0.05,0.46,0.15,0.89,0.28,1.29
		c0.13,0.4,0.34,0.79,0.61,1.17c0.37,0.51,0.86,0.55,1.49,0.1c0.29-0.21,0.5-0.49,0.63-0.84c0.13-0.35,0.18-0.7,0.16-1.05
		s-0.11-0.63-0.25-0.83c-0.16-0.23-0.38-0.37-0.65-0.43c-0.27-0.06-0.6-0.09-1-0.1c-0.26,0-0.45-0.02-0.59-0.04
		c-0.13-0.02-0.22-0.06-0.26-0.11c-0.06-0.08-0.05-0.18,0.03-0.31c0.08-0.13,0.19-0.25,0.34-0.35c0.08-0.06,0.14-0.1,0.18-0.1
		s0.06,0,0.08,0.03c0.01,0.01,0.01,0.04,0.01,0.09c0,0.05,0,0.08,0.02,0.1c0.01,0.02,0.13,0.04,0.33,0.06
		c0.41,0.03,0.79,0.09,1.12,0.19c0.33,0.1,0.61,0.29,0.82,0.59C360.92,39.43,361.04,39.79,361.08,40.26z"/>
	<path d="M363.4,34.42c-0.03,0.13-0.07,0.22-0.13,0.26c-0.04,0.03-0.1,0.04-0.17,0.04c-0.07-0.01-0.16-0.03-0.26-0.06
		c-0.09-0.03-0.19-0.04-0.3-0.04c-0.11,0.01-0.2,0.04-0.28,0.1c-0.19,0.13-0.26,0.57-0.23,1.29c0.04,0.73,0.17,1.57,0.41,2.55
		c0.11,0.15,0.26,0.33,0.44,0.54c0.18,0.22,0.31,0.38,0.4,0.48l0.31,0.37c0.07,0.09,0.1,0.19,0.11,0.28s-0.04,0.18-0.14,0.26
		c-0.11,0.08-0.29-0.02-0.53-0.29c-0.24-0.27-0.57-0.69-0.98-1.25c-0.11-0.14-0.26-0.34-0.45-0.6c-0.19-0.26-0.43-0.58-0.71-0.94
		c-0.42-0.55-0.72-0.94-0.89-1.18c-0.11-0.15-0.07-0.29,0.11-0.42c0.11-0.08,0.21-0.08,0.3,0c0.09,0.08,0.23,0.25,0.42,0.52
		l1.11,1.55c-0.16-0.64-0.26-1.22-0.29-1.75c-0.03-0.53-0.01-0.96,0.07-1.31c0.08-0.35,0.21-0.58,0.37-0.7
		c0.14-0.1,0.3-0.17,0.48-0.2c0.18-0.03,0.34-0.02,0.49,0.03c0.15,0.04,0.26,0.11,0.32,0.2C363.42,34.19,363.43,34.28,363.4,34.42z"
		/>
	<path d="M369.13,33.25c0.03,0.97-0.12,1.95-0.45,2.94c-0.13,0.42-0.27,0.68-0.41,0.78c-0.07,0.05-0.15,0.07-0.23,0.05
		c-0.08-0.02-0.15-0.07-0.2-0.14c-0.05-0.07-0.07-0.17-0.06-0.28c0.01-0.12,0.06-0.24,0.14-0.38c0.31-0.52,0.52-1.09,0.63-1.72
		c0.11-0.63,0.12-1.23,0.03-1.79c-0.09-0.56-0.24-0.99-0.46-1.31c-0.09-0.12-0.18-0.2-0.28-0.22c-0.1-0.02-0.21,0.01-0.34,0.1
		c-0.27,0.2-0.47,0.51-0.6,0.93c-0.13,0.43-0.19,0.91-0.18,1.44c0.01,0.41,0.06,0.87,0.16,1.38c0.1,0.51,0.26,1.01,0.47,1.51
		c0.11,0.26,0.08,0.46-0.09,0.58c-0.04,0.03-0.12,0.03-0.23-0.02c-0.11-0.04-0.19-0.1-0.24-0.16c-0.54-0.75-1.36-1.85-2.46-3.27
		c-1.1-1.43-1.73-2.24-1.9-2.43c-0.03-0.04-0.06-0.07-0.09-0.11c-0.03-0.03-0.06-0.06-0.09-0.09c-0.03-0.03-0.07-0.07-0.11-0.11
		c-0.04-0.04-0.07-0.08-0.1-0.12c-0.11-0.15-0.09-0.27,0.04-0.37c0.11-0.08,0.25-0.07,0.42,0.02c0.17,0.09,0.32,0.22,0.44,0.4
		l0.37,0.52c1.11,1.55,1.98,2.72,2.62,3.52c0.32,0.39,0.51,0.6,0.57,0.63c-0.08-0.27-0.14-0.59-0.18-0.96s-0.05-0.74-0.05-1.09
		c0.01-0.64,0.1-1.21,0.28-1.71c0.18-0.51,0.41-0.86,0.71-1.07c0.2-0.14,0.41-0.2,0.63-0.16c0.22,0.04,0.42,0.18,0.59,0.43
		C368.89,31.52,369.1,32.28,369.13,33.25z"/>
	<path d="M368.03,28c-0.11,0.08-0.25,0.11-0.43,0.1c-0.18-0.01-0.29-0.04-0.33-0.1c-0.05-0.07-0.07-0.16-0.04-0.28
		c0.02-0.11,0.07-0.2,0.14-0.25c0.12-0.04,0.24-0.04,0.36-0.02c0.09,0.01,0.2,0.04,0.32,0.08c0.13,0.04,0.2,0.07,0.21,0.09
		C368.31,27.72,368.24,27.85,368.03,28z M372.91,33.8c-0.03,0.08-0.08,0.14-0.16,0.18c-0.1,0.06-0.27-0.04-0.51-0.3
		c-0.25-0.26-0.68-0.77-1.3-1.54c-0.4-0.51-0.79-1.01-1.17-1.5s-0.67-0.87-0.87-1.14c-0.05-0.07-0.08-0.13-0.08-0.19
		c0-0.05,0.03-0.1,0.09-0.15c0.15-0.11,0.29-0.11,0.42-0.02c0.13,0.1,0.32,0.32,0.57,0.67l0.81,1.16c0.47,0.66,0.87,1.17,1.19,1.54
		c0.01,0.02,0.19,0.21,0.53,0.56c0.24,0.24,0.39,0.41,0.46,0.5C372.93,33.65,372.94,33.72,372.91,33.8z"/>
	<path d="M372.82,23.5c0.09,0.13,0.27,0.39,0.53,0.78c0.26,0.39,0.53,0.78,0.8,1.16c0.53,0.74,1.09,1.49,1.67,2.23
		c0.58,0.75,0.97,1.23,1.16,1.46c0.03,0.04,0.06,0.08,0.1,0.12c0.04,0.04,0.08,0.08,0.11,0.11c0.16,0.16,0.25,0.27,0.28,0.3
		c0.05,0.06,0.04,0.16-0.01,0.29c-0.05,0.13-0.1,0.21-0.16,0.24c-0.07,0.05-0.14,0.06-0.2,0.02c-0.06-0.04-0.13-0.11-0.2-0.2
		c-0.26-0.36-0.51-0.74-0.77-1.14l-0.38-0.55c-0.13-0.18-0.3-0.42-0.52-0.71c-0.22-0.29-0.41-0.53-0.56-0.73
		c0.43,1.3,0.69,2.46,0.77,3.46c0.08,1-0.12,1.67-0.61,2.02c-0.22,0.16-0.48,0.19-0.79,0.09c-0.3-0.1-0.59-0.34-0.87-0.73
		c-0.37-0.51-0.59-1.2-0.68-2.05c-0.08-0.85-0.06-1.66,0.07-2.41c0.13-0.75,0.31-1.21,0.52-1.36c0.21-0.15,0.36-0.16,0.46-0.02
		c0.07,0.09,0.11,0.22,0.13,0.38c0.02,0.16,0.03,0.32,0.03,0.47s-0.01,0.23-0.03,0.24c-0.01,0.01-0.03,0.01-0.05,0.02
		c-0.02,0-0.04,0-0.05-0.02c-0.02-0.03-0.05-0.1-0.07-0.2c-0.02-0.1-0.04-0.17-0.06-0.19c-0.02-0.03-0.04-0.05-0.06-0.06
		c-0.02-0.01-0.04,0-0.07,0.02c-0.14,0.1-0.25,0.46-0.34,1.09c-0.09,0.63-0.09,1.3,0,2.01c0.09,0.71,0.29,1.29,0.61,1.73
		c0.11,0.16,0.25,0.28,0.41,0.37c0.16,0.09,0.32,0.08,0.47-0.03c0.47-0.34,0.63-1.06,0.46-2.15c-0.17-1.09-0.47-2.26-0.9-3.5
		l-0.61-0.81c-0.54-0.71-0.82-1.08-0.85-1.13c-0.28-0.39-0.46-0.68-0.55-0.87c-0.03-0.07-0.05-0.13-0.05-0.17s0.02-0.08,0.07-0.11
		c0.07-0.05,0.15-0.07,0.24-0.08c0.1,0,0.17,0.03,0.22,0.1L372.82,23.5z"/>
	<path d="M377.45,20.18c0.09,0.13,0.27,0.39,0.53,0.78s0.53,0.78,0.8,1.16c0.53,0.74,1.09,1.49,1.67,2.23
		c0.58,0.75,0.97,1.23,1.17,1.46c0.03,0.04,0.06,0.08,0.1,0.12c0.04,0.04,0.08,0.08,0.11,0.11c0.16,0.16,0.25,0.27,0.28,0.3
		c0.05,0.06,0.04,0.16-0.01,0.29c-0.05,0.13-0.1,0.21-0.16,0.24c-0.07,0.05-0.14,0.06-0.2,0.02s-0.13-0.11-0.2-0.2
		c-0.26-0.36-0.51-0.74-0.77-1.14L380.38,25c-0.13-0.18-0.3-0.42-0.52-0.71c-0.22-0.29-0.41-0.53-0.56-0.73
		c0.43,1.3,0.69,2.46,0.77,3.46s-0.12,1.67-0.61,2.02c-0.22,0.16-0.48,0.19-0.78,0.09c-0.3-0.1-0.59-0.34-0.87-0.73
		c-0.37-0.51-0.59-1.2-0.68-2.05c-0.08-0.85-0.06-1.66,0.07-2.41c0.13-0.75,0.31-1.21,0.52-1.36c0.21-0.15,0.36-0.16,0.46-0.02
		c0.06,0.09,0.11,0.22,0.13,0.38c0.02,0.17,0.03,0.32,0.03,0.47c0,0.15-0.01,0.23-0.03,0.24c-0.01,0.01-0.03,0.01-0.05,0.02
		c-0.02,0-0.04,0-0.05-0.02c-0.02-0.03-0.05-0.1-0.07-0.2c-0.02-0.1-0.04-0.17-0.06-0.19c-0.02-0.03-0.04-0.05-0.06-0.06
		c-0.02-0.01-0.04,0-0.07,0.02c-0.14,0.1-0.25,0.46-0.33,1.09c-0.09,0.63-0.09,1.3,0,2.01c0.09,0.71,0.29,1.29,0.61,1.73
		c0.11,0.16,0.25,0.28,0.41,0.37c0.16,0.09,0.32,0.08,0.47-0.03c0.47-0.34,0.63-1.06,0.46-2.15c-0.17-1.09-0.47-2.26-0.9-3.5
		l-0.61-0.81c-0.54-0.71-0.82-1.08-0.85-1.13c-0.28-0.39-0.46-0.68-0.55-0.87c-0.03-0.07-0.05-0.13-0.05-0.17
		c0-0.04,0.02-0.08,0.08-0.11c0.07-0.05,0.15-0.07,0.24-0.08c0.09,0,0.17,0.03,0.22,0.1L377.45,20.18z"/>
	<path d="M385.45,21.01c0.08,0.12,0.18,0.44,0.29,0.96c0.11,0.52,0.12,1.08,0.01,1.66c-0.11,0.59-0.41,1.06-0.92,1.43
		c-0.42,0.3-0.86,0.42-1.32,0.36c-0.47-0.06-0.89-0.36-1.28-0.9c-0.36-0.51-0.61-1.09-0.73-1.76c-0.12-0.66-0.11-1.29,0.04-1.88
		c0.15-0.58,0.43-1.02,0.83-1.31c0.24-0.17,0.48-0.26,0.73-0.28c0.24-0.01,0.44,0.08,0.58,0.29c0.16,0.23,0.19,0.54,0.09,0.94
		s-0.3,0.83-0.6,1.28c-0.29,0.46-0.63,0.88-1.02,1.26c0.14,0.35,0.31,0.68,0.51,0.96c0.27,0.38,0.57,0.61,0.9,0.69
		c0.33,0.08,0.66,0,0.99-0.24c0.5-0.36,0.78-0.83,0.84-1.41c0.06-0.58,0.03-1.17-0.09-1.77c-0.01-0.04-0.02-0.1-0.04-0.2
		c-0.02-0.1-0.02-0.16,0.01-0.17C385.32,20.88,385.38,20.91,385.45,21.01z M382.99,19.86c-0.15,0.02-0.3,0.08-0.44,0.18
		c-0.25,0.18-0.43,0.43-0.54,0.75c-0.11,0.33-0.16,0.66-0.15,0.99s0.05,0.61,0.13,0.82c0.28-0.25,0.53-0.56,0.77-0.93
		c0.23-0.37,0.4-0.72,0.51-1.05c0.11-0.32,0.12-0.54,0.05-0.64C383.25,19.89,383.14,19.85,382.99,19.86z"/>
	<path d="M391.34,20.74c-0.03,0.1-0.08,0.19-0.17,0.25c-0.07,0.05-0.13,0.07-0.2,0.07c-0.07,0-0.12-0.02-0.16-0.07
		c-0.19-0.27-0.47-0.69-0.83-1.28c-0.39-0.63-0.73-1.14-1.01-1.54c-0.27-0.38-0.51-0.69-0.71-0.92s-0.34-0.31-0.42-0.25
		c-0.22,0.16-0.27,0.61-0.14,1.34c0.13,0.74,0.35,1.68,0.65,2.82l0.13,0.5c0.02,0.08,0.01,0.17-0.02,0.25
		c-0.04,0.08-0.08,0.15-0.15,0.19c-0.08,0.06-0.13,0.09-0.17,0.09c-0.04,0.01-0.08-0.02-0.13-0.08l-0.65-0.74l-1.15-1.3
		c-0.45-0.53-0.85-0.98-1.21-1.35c-0.09-0.08-0.15-0.15-0.19-0.2c-0.07-0.1-0.08-0.21-0.04-0.33c0.04-0.12,0.12-0.22,0.23-0.3
		c0.07-0.05,0.22,0.08,0.48,0.37c0.25,0.29,0.65,0.77,1.18,1.45l0.41,0.49c0.52,0.62,0.85,1.02,0.98,1.19
		c-0.01-0.05-0.02-0.11-0.04-0.17s-0.04-0.13-0.05-0.21c-0.3-1.16-0.51-2.16-0.64-2.99c-0.13-0.83-0.05-1.35,0.24-1.55
		c0.2-0.14,0.46-0.07,0.78,0.22c0.32,0.29,0.68,0.69,1.08,1.21c0.44,0.58,1.07,1.44,1.89,2.57
		C391.35,20.55,391.36,20.64,391.34,20.74z"/>
</g>
<g class="st3">
	<path d="M29.69,187.15c0.05,0.15,0.06,0.24,0.01,0.28c-0.04,0.03-0.09,0.04-0.15,0.01c-0.05-0.03-0.11-0.07-0.19-0.13
		c-0.23-0.17-0.47-0.28-0.73-0.33c-0.25-0.05-0.47-0.01-0.64,0.11c-0.46,0.33-0.56,0.87-0.32,1.63c0.24,0.76,0.66,1.55,1.25,2.37
		c0.19-0.15,0.38-0.34,0.59-0.56s0.35-0.37,0.42-0.44c0.39-0.43,0.66-0.7,0.81-0.8c0.13-0.09,0.24-0.08,0.32,0.04
		c0.07,0.09,0.12,0.2,0.15,0.33s0.01,0.23-0.06,0.28c-0.06,0.05-0.14,0.08-0.22,0.1c-0.12,0.03-0.26,0.09-0.41,0.21
		c-0.11,0.08-0.3,0.26-0.57,0.56l-0.7,0.68c0.12,0.16,0.46,0.6,1.03,1.31c0.88,1.1,1.57,1.99,2.06,2.67
		c0.09,0.12,0.14,0.22,0.14,0.29c0.01,0.07-0.03,0.13-0.1,0.18c-0.09,0.07-0.2,0.06-0.32-0.01s-0.23-0.17-0.32-0.3
		c-0.54-0.75-1.42-1.89-2.67-3.42l-0.24-0.3c-0.05,0.04-0.19,0.19-0.44,0.45c-0.25,0.25-0.43,0.43-0.56,0.52
		c-0.07,0.05-0.14,0.08-0.22,0.08s-0.13-0.03-0.18-0.09c-0.12-0.16-0.12-0.29-0.01-0.38c0.16-0.13,0.36-0.29,0.58-0.48
		c0.22-0.2,0.39-0.35,0.5-0.47c-0.76-1.07-1.24-2.04-1.43-2.91s0.01-1.52,0.58-1.93c0.21-0.15,0.44-0.23,0.69-0.26
		c0.25-0.02,0.49,0,0.7,0.07c0.21,0.07,0.37,0.17,0.46,0.29C29.58,186.88,29.64,186.99,29.69,187.15z"/>
	<path d="M36.47,189.49c0.05,0.47-0.02,0.94-0.19,1.43c-0.17,0.48-0.48,0.88-0.93,1.2c-0.44,0.31-0.84,0.42-1.22,0.33
		c-0.38-0.09-0.7-0.32-0.96-0.67c-0.22-0.31-0.44-0.74-0.66-1.28c-0.22-0.54-0.35-1.07-0.4-1.58c-0.01-0.04-0.02-0.17-0.04-0.4
		c-0.02-0.23-0.01-0.44,0.04-0.61c0.05-0.17,0.15-0.3,0.28-0.4c0.06-0.04,0.12-0.07,0.19-0.07c0.07,0,0.12,0.02,0.15,0.06
		c0.01,0.01,0.01,0.06,0.01,0.13c0,0.07,0,0.13,0,0.17c-0.03,0.43-0.02,0.82,0.03,1.17c0.05,0.46,0.15,0.89,0.28,1.29
		c0.13,0.4,0.34,0.79,0.61,1.17c0.37,0.51,0.86,0.55,1.49,0.1c0.29-0.21,0.5-0.49,0.63-0.84c0.13-0.35,0.18-0.7,0.16-1.05
		c-0.03-0.35-0.11-0.63-0.25-0.83c-0.16-0.23-0.38-0.37-0.65-0.44c-0.27-0.06-0.6-0.09-1-0.1c-0.26,0-0.45-0.02-0.59-0.04
		c-0.13-0.02-0.22-0.06-0.26-0.11c-0.06-0.08-0.05-0.18,0.03-0.31c0.08-0.13,0.19-0.25,0.34-0.35c0.08-0.06,0.14-0.1,0.18-0.1
		c0.03-0.01,0.06,0,0.08,0.03c0.01,0.01,0.01,0.04,0.01,0.09c0,0.04,0,0.08,0.02,0.1s0.13,0.04,0.33,0.05
		c0.41,0.03,0.79,0.09,1.12,0.19c0.33,0.1,0.61,0.29,0.82,0.59C36.3,188.66,36.42,189.02,36.47,189.49z"/>
	<path d="M38.79,183.65c-0.03,0.13-0.07,0.22-0.13,0.26c-0.04,0.03-0.1,0.04-0.17,0.04c-0.07-0.01-0.16-0.03-0.26-0.06
		c-0.09-0.03-0.19-0.04-0.3-0.04c-0.11,0.01-0.2,0.04-0.28,0.1c-0.19,0.13-0.26,0.57-0.23,1.29c0.04,0.72,0.17,1.57,0.41,2.55
		c0.11,0.15,0.26,0.33,0.44,0.54c0.18,0.22,0.31,0.38,0.4,0.48l0.31,0.37c0.07,0.09,0.1,0.19,0.11,0.28s-0.04,0.18-0.14,0.26
		c-0.11,0.08-0.29-0.02-0.53-0.29s-0.57-0.69-0.98-1.25c-0.11-0.14-0.26-0.34-0.45-0.6c-0.19-0.27-0.43-0.58-0.71-0.94
		c-0.42-0.55-0.72-0.94-0.89-1.18c-0.11-0.15-0.07-0.29,0.11-0.42c0.11-0.08,0.21-0.08,0.3,0c0.09,0.08,0.23,0.25,0.42,0.52
		l1.11,1.55c-0.16-0.64-0.26-1.22-0.29-1.75c-0.03-0.53-0.01-0.96,0.07-1.31c0.08-0.35,0.21-0.58,0.37-0.7
		c0.14-0.1,0.3-0.17,0.48-0.2c0.18-0.03,0.34-0.02,0.49,0.03c0.15,0.04,0.26,0.11,0.32,0.2C38.81,183.42,38.82,183.51,38.79,183.65z
		"/>
	<path d="M44.51,182.49c0.03,0.97-0.12,1.95-0.45,2.94c-0.13,0.42-0.27,0.68-0.41,0.78c-0.07,0.05-0.15,0.07-0.23,0.05
		c-0.08-0.02-0.15-0.07-0.2-0.14s-0.07-0.17-0.06-0.28c0.01-0.12,0.06-0.24,0.14-0.38c0.31-0.52,0.52-1.09,0.63-1.72
		c0.11-0.63,0.12-1.23,0.03-1.79c-0.09-0.56-0.24-0.99-0.46-1.31c-0.09-0.12-0.18-0.2-0.28-0.22c-0.1-0.02-0.21,0.01-0.34,0.1
		c-0.27,0.2-0.47,0.51-0.6,0.93s-0.19,0.91-0.18,1.44c0.01,0.41,0.06,0.87,0.16,1.38c0.1,0.51,0.26,1.01,0.47,1.51
		c0.11,0.26,0.08,0.46-0.09,0.58c-0.04,0.03-0.12,0.03-0.23-0.02c-0.11-0.04-0.19-0.1-0.24-0.16c-0.54-0.76-1.36-1.85-2.46-3.27
		c-1.1-1.43-1.73-2.24-1.9-2.43c-0.03-0.04-0.06-0.07-0.09-0.11s-0.06-0.06-0.09-0.09c-0.03-0.03-0.07-0.07-0.11-0.11
		c-0.04-0.04-0.07-0.08-0.1-0.12c-0.11-0.15-0.09-0.27,0.04-0.37c0.11-0.08,0.25-0.07,0.42,0.02c0.17,0.09,0.32,0.22,0.44,0.4
		l0.37,0.52c1.11,1.55,1.98,2.72,2.62,3.52c0.32,0.39,0.51,0.6,0.57,0.63c-0.08-0.27-0.14-0.59-0.18-0.96
		c-0.04-0.38-0.05-0.74-0.05-1.09c0.01-0.63,0.1-1.21,0.28-1.71c0.18-0.51,0.41-0.86,0.71-1.07c0.2-0.14,0.41-0.2,0.63-0.16
		c0.22,0.04,0.42,0.18,0.59,0.43C44.28,180.75,44.49,181.52,44.51,182.49z"/>
	<path d="M43.41,177.23c-0.11,0.08-0.25,0.11-0.43,0.1c-0.18-0.01-0.29-0.04-0.33-0.1c-0.05-0.07-0.07-0.16-0.04-0.28
		s0.07-0.2,0.14-0.25c0.12-0.04,0.24-0.04,0.36-0.02c0.09,0.02,0.2,0.04,0.32,0.08c0.13,0.04,0.2,0.07,0.21,0.09
		C43.7,176.95,43.63,177.08,43.41,177.23z M48.29,183.03c-0.03,0.08-0.08,0.13-0.16,0.18c-0.1,0.06-0.27-0.04-0.51-0.29
		s-0.68-0.77-1.3-1.54c-0.4-0.51-0.79-1.01-1.17-1.5s-0.67-0.87-0.87-1.14c-0.05-0.07-0.08-0.13-0.08-0.19
		c0-0.05,0.03-0.1,0.09-0.15c0.15-0.11,0.29-0.11,0.42-0.02c0.13,0.1,0.32,0.32,0.57,0.67l0.81,1.16c0.47,0.66,0.87,1.17,1.19,1.54
		c0.01,0.02,0.19,0.21,0.53,0.56c0.24,0.24,0.39,0.41,0.46,0.5C48.31,182.88,48.32,182.95,48.29,183.03z"/>
	<path d="M48.2,172.73c0.09,0.13,0.27,0.39,0.53,0.78c0.26,0.39,0.53,0.78,0.8,1.16c0.53,0.74,1.09,1.49,1.67,2.23
		s0.97,1.23,1.16,1.46c0.03,0.04,0.06,0.08,0.1,0.12s0.08,0.08,0.11,0.11c0.16,0.16,0.25,0.26,0.28,0.3
		c0.05,0.07,0.04,0.16-0.01,0.29c-0.05,0.13-0.1,0.21-0.16,0.24c-0.07,0.05-0.14,0.06-0.2,0.02c-0.06-0.04-0.13-0.11-0.2-0.2
		c-0.26-0.36-0.51-0.74-0.77-1.14l-0.38-0.55c-0.13-0.18-0.3-0.42-0.52-0.71c-0.22-0.29-0.41-0.53-0.56-0.73
		c0.43,1.3,0.69,2.46,0.77,3.46c0.08,1-0.12,1.67-0.61,2.02c-0.22,0.16-0.48,0.19-0.79,0.09c-0.3-0.1-0.59-0.34-0.87-0.73
		c-0.37-0.51-0.59-1.2-0.68-2.05c-0.08-0.85-0.06-1.66,0.07-2.41c0.13-0.75,0.31-1.21,0.52-1.36c0.21-0.15,0.36-0.16,0.46-0.02
		c0.07,0.09,0.11,0.22,0.13,0.38c0.02,0.17,0.03,0.32,0.03,0.47c0,0.15-0.01,0.23-0.03,0.24c-0.01,0.01-0.03,0.02-0.05,0.02
		c-0.02,0-0.04,0-0.05-0.02c-0.02-0.03-0.05-0.1-0.07-0.2c-0.02-0.1-0.04-0.17-0.06-0.19c-0.02-0.03-0.04-0.05-0.06-0.06
		c-0.02-0.01-0.04,0-0.07,0.02c-0.14,0.1-0.25,0.46-0.34,1.09c-0.09,0.63-0.09,1.3,0,2.01c0.09,0.71,0.29,1.29,0.61,1.73
		c0.11,0.16,0.25,0.28,0.41,0.37c0.16,0.09,0.32,0.08,0.47-0.03c0.47-0.34,0.63-1.06,0.46-2.15c-0.17-1.09-0.47-2.26-0.9-3.49
		l-0.61-0.81c-0.54-0.71-0.82-1.08-0.85-1.13c-0.28-0.39-0.46-0.68-0.55-0.87c-0.03-0.07-0.05-0.13-0.05-0.17
		c0-0.04,0.02-0.08,0.07-0.11c0.07-0.05,0.15-0.07,0.24-0.08c0.1,0,0.17,0.03,0.22,0.1L48.2,172.73z"/>
	<path d="M52.84,169.41c0.09,0.13,0.27,0.39,0.53,0.78c0.26,0.39,0.53,0.78,0.8,1.16c0.53,0.74,1.09,1.49,1.67,2.23
		c0.58,0.75,0.97,1.23,1.17,1.46c0.03,0.04,0.06,0.08,0.1,0.12c0.04,0.04,0.08,0.08,0.11,0.11c0.16,0.16,0.25,0.27,0.28,0.3
		c0.05,0.06,0.04,0.16-0.01,0.29c-0.05,0.13-0.1,0.21-0.16,0.24c-0.07,0.05-0.14,0.06-0.2,0.02s-0.13-0.11-0.2-0.2
		c-0.26-0.36-0.51-0.74-0.77-1.14l-0.38-0.55c-0.13-0.18-0.3-0.42-0.52-0.71c-0.22-0.29-0.41-0.53-0.56-0.72
		c0.43,1.3,0.69,2.46,0.77,3.46s-0.12,1.67-0.61,2.02c-0.22,0.16-0.48,0.19-0.78,0.09c-0.3-0.1-0.59-0.34-0.87-0.73
		c-0.37-0.51-0.59-1.2-0.68-2.05c-0.08-0.85-0.06-1.66,0.07-2.41c0.13-0.75,0.31-1.21,0.52-1.36c0.21-0.15,0.36-0.15,0.46-0.02
		c0.06,0.09,0.11,0.22,0.13,0.38c0.02,0.17,0.03,0.32,0.03,0.47c0,0.15-0.01,0.23-0.03,0.24c-0.01,0.01-0.03,0.01-0.05,0.02
		c-0.02,0-0.04,0-0.05-0.02c-0.02-0.03-0.05-0.1-0.07-0.2c-0.02-0.1-0.04-0.17-0.06-0.19c-0.02-0.03-0.04-0.05-0.06-0.06
		c-0.02-0.01-0.04,0-0.07,0.02c-0.14,0.1-0.25,0.46-0.33,1.09c-0.09,0.63-0.09,1.3,0,2.01c0.09,0.71,0.29,1.29,0.61,1.73
		c0.11,0.16,0.25,0.28,0.41,0.37c0.16,0.09,0.32,0.08,0.47-0.03c0.47-0.34,0.63-1.06,0.46-2.15c-0.17-1.1-0.47-2.26-0.9-3.5
		l-0.61-0.81c-0.54-0.71-0.82-1.08-0.85-1.13c-0.28-0.39-0.46-0.68-0.55-0.88c-0.03-0.07-0.05-0.13-0.05-0.17
		c0-0.04,0.02-0.07,0.08-0.11c0.07-0.05,0.15-0.07,0.24-0.08c0.09,0,0.17,0.03,0.22,0.1L52.84,169.41z"/>
	<path d="M60.83,170.24c0.08,0.12,0.18,0.44,0.29,0.96c0.11,0.52,0.12,1.08,0.01,1.66c-0.11,0.59-0.41,1.06-0.92,1.43
		c-0.42,0.3-0.86,0.42-1.32,0.36c-0.47-0.06-0.89-0.36-1.28-0.9c-0.36-0.51-0.61-1.09-0.73-1.76c-0.12-0.66-0.11-1.29,0.04-1.88
		c0.15-0.58,0.43-1.02,0.83-1.31c0.24-0.17,0.48-0.26,0.73-0.28c0.24-0.01,0.44,0.08,0.58,0.29c0.16,0.23,0.19,0.54,0.09,0.94
		s-0.3,0.83-0.6,1.28s-0.63,0.88-1.02,1.26c0.14,0.36,0.31,0.68,0.51,0.96c0.27,0.38,0.57,0.61,0.9,0.69s0.66,0,0.99-0.24
		c0.5-0.36,0.78-0.83,0.84-1.41c0.06-0.58,0.03-1.17-0.09-1.77c-0.01-0.04-0.02-0.1-0.04-0.2c-0.02-0.1-0.02-0.16,0.01-0.17
		C60.71,170.11,60.76,170.14,60.83,170.24z M58.37,169.09c-0.15,0.02-0.3,0.08-0.44,0.18c-0.25,0.18-0.43,0.43-0.54,0.75
		c-0.11,0.33-0.16,0.66-0.15,0.99c0.01,0.34,0.05,0.61,0.13,0.82c0.28-0.25,0.53-0.56,0.77-0.93c0.23-0.38,0.4-0.72,0.51-1.05
		c0.11-0.32,0.12-0.54,0.05-0.64C58.63,169.12,58.52,169.08,58.37,169.09z"/>
	<path d="M66.72,169.97c-0.03,0.1-0.08,0.19-0.17,0.25c-0.07,0.05-0.13,0.07-0.2,0.08c-0.07,0-0.12-0.02-0.16-0.07
		c-0.19-0.27-0.47-0.69-0.83-1.28c-0.39-0.63-0.73-1.14-1.01-1.54c-0.27-0.38-0.51-0.69-0.71-0.92c-0.2-0.23-0.34-0.31-0.42-0.25
		c-0.22,0.16-0.27,0.61-0.14,1.34s0.35,1.68,0.65,2.82l0.13,0.5c0.02,0.08,0.01,0.17-0.02,0.25c-0.04,0.08-0.08,0.15-0.15,0.2
		c-0.08,0.06-0.13,0.09-0.17,0.09c-0.04,0.01-0.08-0.02-0.13-0.08l-0.65-0.74l-1.15-1.3c-0.45-0.53-0.85-0.97-1.21-1.35
		c-0.09-0.08-0.15-0.15-0.19-0.2c-0.07-0.1-0.08-0.21-0.04-0.33c0.04-0.12,0.12-0.22,0.23-0.3c0.07-0.05,0.22,0.08,0.48,0.37
		c0.25,0.29,0.65,0.77,1.18,1.45l0.41,0.49c0.52,0.62,0.85,1.02,0.98,1.19c-0.01-0.05-0.02-0.11-0.04-0.17s-0.04-0.13-0.05-0.21
		c-0.3-1.16-0.51-2.16-0.64-2.99c-0.13-0.83-0.05-1.35,0.24-1.55c0.2-0.14,0.46-0.07,0.78,0.22c0.32,0.29,0.68,0.69,1.08,1.21
		c0.44,0.58,1.07,1.44,1.89,2.57C66.73,169.78,66.75,169.87,66.72,169.97z"/>
</g>
<g class="st3">
	<path d="M358.15,180.22c0.05,0.15,0.06,0.25,0.01,0.28c-0.04,0.03-0.09,0.04-0.15,0.01c-0.05-0.03-0.11-0.07-0.19-0.13
		c-0.23-0.17-0.47-0.28-0.73-0.33c-0.25-0.05-0.47-0.01-0.64,0.11c-0.46,0.33-0.56,0.87-0.32,1.62s0.66,1.55,1.25,2.38
		c0.19-0.15,0.38-0.34,0.59-0.56c0.21-0.22,0.35-0.37,0.42-0.44c0.39-0.43,0.66-0.7,0.81-0.8c0.13-0.09,0.24-0.08,0.32,0.04
		c0.07,0.09,0.12,0.2,0.15,0.33c0.04,0.13,0.01,0.23-0.06,0.28c-0.06,0.05-0.14,0.08-0.22,0.1c-0.12,0.03-0.26,0.09-0.41,0.21
		c-0.11,0.07-0.3,0.26-0.57,0.56l-0.7,0.68c0.12,0.16,0.46,0.6,1.03,1.31c0.88,1.1,1.57,1.99,2.06,2.67
		c0.09,0.12,0.14,0.22,0.14,0.29c0.01,0.07-0.03,0.13-0.1,0.18c-0.09,0.07-0.2,0.06-0.32-0.01c-0.12-0.07-0.23-0.17-0.32-0.3
		c-0.54-0.75-1.42-1.89-2.67-3.42l-0.24-0.3c-0.05,0.04-0.19,0.19-0.44,0.45s-0.43,0.43-0.56,0.52c-0.07,0.05-0.14,0.08-0.22,0.08
		s-0.13-0.03-0.18-0.09c-0.12-0.16-0.12-0.29-0.01-0.38c0.16-0.13,0.36-0.29,0.58-0.48c0.22-0.2,0.39-0.35,0.5-0.47
		c-0.76-1.07-1.24-2.04-1.43-2.91c-0.19-0.87,0.01-1.52,0.58-1.93c0.21-0.15,0.44-0.23,0.69-0.26s0.49,0,0.7,0.07
		c0.21,0.07,0.37,0.17,0.46,0.29C358.04,179.96,358.1,180.07,358.15,180.22z"/>
	<path d="M364.93,182.57c0.05,0.47-0.02,0.94-0.19,1.43c-0.17,0.48-0.48,0.88-0.93,1.2c-0.44,0.31-0.84,0.42-1.22,0.33
		c-0.38-0.09-0.7-0.32-0.96-0.67c-0.22-0.31-0.44-0.74-0.66-1.28c-0.22-0.54-0.35-1.07-0.4-1.58c-0.01-0.04-0.02-0.17-0.04-0.4
		s-0.01-0.44,0.04-0.61c0.05-0.17,0.15-0.3,0.28-0.4c0.06-0.04,0.12-0.07,0.19-0.07c0.07,0,0.12,0.01,0.15,0.06
		c0.01,0.01,0.01,0.06,0.01,0.13c0,0.08,0,0.13,0,0.17c-0.03,0.43-0.02,0.82,0.03,1.17c0.05,0.46,0.15,0.89,0.28,1.29
		c0.13,0.4,0.34,0.79,0.61,1.17c0.37,0.51,0.86,0.55,1.49,0.1c0.29-0.21,0.5-0.49,0.63-0.84c0.13-0.35,0.18-0.7,0.16-1.05
		s-0.11-0.63-0.25-0.83c-0.16-0.23-0.38-0.37-0.65-0.43c-0.27-0.06-0.6-0.09-1-0.1c-0.26,0-0.45-0.02-0.59-0.04
		c-0.13-0.02-0.22-0.06-0.26-0.11c-0.06-0.08-0.05-0.18,0.03-0.31c0.08-0.13,0.19-0.25,0.34-0.35c0.08-0.06,0.14-0.09,0.18-0.1
		s0.06,0,0.08,0.03c0.01,0.01,0.01,0.04,0.01,0.09c0,0.05,0,0.08,0.02,0.1s0.13,0.04,0.33,0.06c0.41,0.03,0.79,0.09,1.12,0.19
		c0.33,0.1,0.61,0.29,0.82,0.59C364.77,181.74,364.88,182.1,364.93,182.57z"/>
	<path d="M367.25,176.72c-0.03,0.13-0.07,0.22-0.13,0.26c-0.04,0.03-0.1,0.04-0.17,0.04c-0.07-0.01-0.16-0.03-0.26-0.07
		c-0.09-0.03-0.19-0.04-0.3-0.04c-0.11,0.01-0.2,0.04-0.28,0.1c-0.19,0.13-0.26,0.56-0.23,1.29c0.04,0.72,0.17,1.57,0.41,2.55
		c0.11,0.14,0.26,0.33,0.44,0.54c0.18,0.22,0.31,0.38,0.4,0.48l0.31,0.37c0.07,0.09,0.1,0.19,0.11,0.28
		c0.01,0.1-0.04,0.18-0.14,0.26c-0.11,0.08-0.29-0.02-0.53-0.29c-0.24-0.27-0.57-0.69-0.98-1.25c-0.11-0.14-0.26-0.34-0.45-0.6
		c-0.19-0.26-0.43-0.58-0.71-0.94c-0.42-0.54-0.72-0.94-0.89-1.18c-0.11-0.15-0.07-0.29,0.11-0.42c0.11-0.08,0.21-0.08,0.3,0
		c0.09,0.08,0.23,0.25,0.42,0.52l1.11,1.55c-0.16-0.64-0.26-1.22-0.29-1.75c-0.03-0.53-0.01-0.96,0.07-1.31
		c0.08-0.35,0.21-0.58,0.37-0.7c0.14-0.1,0.3-0.17,0.48-0.2c0.18-0.03,0.34-0.02,0.49,0.03c0.15,0.04,0.26,0.11,0.32,0.21
		C367.27,176.5,367.28,176.59,367.25,176.72z"/>
	<path d="M372.98,175.56c0.03,0.97-0.12,1.95-0.45,2.94c-0.13,0.42-0.27,0.68-0.41,0.78c-0.07,0.05-0.15,0.07-0.23,0.05
		c-0.08-0.02-0.15-0.07-0.2-0.14c-0.05-0.07-0.07-0.17-0.06-0.28c0.01-0.12,0.06-0.24,0.14-0.38c0.31-0.52,0.52-1.09,0.63-1.72
		c0.11-0.63,0.12-1.23,0.03-1.79c-0.09-0.56-0.24-0.99-0.46-1.31c-0.09-0.12-0.18-0.2-0.28-0.22c-0.1-0.02-0.21,0.01-0.34,0.1
		c-0.27,0.2-0.47,0.51-0.6,0.93s-0.19,0.91-0.18,1.44c0.01,0.41,0.06,0.87,0.16,1.38c0.1,0.51,0.26,1.01,0.47,1.51
		c0.11,0.27,0.08,0.46-0.09,0.58c-0.04,0.03-0.12,0.03-0.23-0.02c-0.11-0.04-0.19-0.1-0.24-0.16c-0.54-0.75-1.36-1.85-2.46-3.27
		c-1.1-1.43-1.73-2.24-1.9-2.43c-0.03-0.04-0.06-0.07-0.09-0.11s-0.06-0.06-0.09-0.09c-0.03-0.03-0.07-0.07-0.11-0.11
		c-0.04-0.04-0.07-0.08-0.1-0.12c-0.11-0.15-0.09-0.27,0.04-0.37c0.11-0.08,0.25-0.07,0.42,0.02s0.32,0.22,0.44,0.4l0.37,0.52
		c1.11,1.55,1.98,2.72,2.62,3.52c0.32,0.39,0.51,0.6,0.57,0.63c-0.08-0.27-0.14-0.59-0.18-0.96s-0.05-0.74-0.05-1.09
		c0.01-0.63,0.1-1.21,0.28-1.71c0.18-0.51,0.41-0.86,0.71-1.07c0.2-0.14,0.41-0.2,0.63-0.16c0.22,0.04,0.42,0.18,0.59,0.43
		C372.74,173.83,372.95,174.59,372.98,175.56z"/>
	<path d="M371.87,170.31c-0.11,0.08-0.25,0.11-0.43,0.1c-0.18-0.01-0.29-0.04-0.33-0.1c-0.05-0.07-0.07-0.16-0.04-0.28
		c0.02-0.11,0.07-0.2,0.14-0.25c0.12-0.04,0.24-0.04,0.36-0.02c0.09,0.01,0.2,0.04,0.32,0.08c0.13,0.04,0.2,0.07,0.21,0.09
		C372.16,170.03,372.09,170.16,371.87,170.31z M376.75,176.11c-0.03,0.08-0.08,0.14-0.16,0.18c-0.1,0.06-0.27-0.04-0.51-0.3
		s-0.68-0.77-1.3-1.54c-0.4-0.51-0.79-1.01-1.17-1.5s-0.67-0.87-0.87-1.14c-0.05-0.07-0.08-0.13-0.08-0.18
		c0-0.05,0.03-0.1,0.09-0.15c0.15-0.11,0.29-0.11,0.42-0.02c0.13,0.1,0.32,0.32,0.57,0.67l0.81,1.16c0.47,0.66,0.87,1.17,1.19,1.54
		c0.01,0.02,0.19,0.21,0.53,0.56c0.24,0.24,0.39,0.41,0.46,0.5C376.77,175.96,376.78,176.03,376.75,176.11z"/>
	<path d="M376.66,165.8c0.09,0.13,0.27,0.39,0.53,0.78c0.26,0.39,0.53,0.78,0.8,1.16c0.53,0.74,1.09,1.49,1.67,2.23
		c0.58,0.75,0.97,1.24,1.16,1.46c0.03,0.04,0.06,0.08,0.1,0.12s0.08,0.08,0.11,0.11c0.16,0.16,0.25,0.26,0.28,0.3
		c0.05,0.07,0.04,0.16-0.01,0.29s-0.1,0.21-0.16,0.25c-0.07,0.05-0.14,0.06-0.2,0.02s-0.13-0.11-0.2-0.21
		c-0.26-0.36-0.51-0.74-0.77-1.14l-0.38-0.55c-0.13-0.18-0.3-0.42-0.52-0.71c-0.22-0.29-0.41-0.53-0.56-0.73
		c0.43,1.3,0.69,2.46,0.77,3.46c0.08,1-0.12,1.67-0.61,2.02c-0.22,0.16-0.48,0.19-0.79,0.09c-0.3-0.1-0.59-0.34-0.87-0.73
		c-0.37-0.51-0.59-1.2-0.68-2.05c-0.08-0.85-0.06-1.66,0.07-2.41c0.13-0.75,0.31-1.21,0.52-1.36c0.21-0.15,0.36-0.16,0.46-0.02
		c0.07,0.09,0.11,0.22,0.13,0.38c0.02,0.16,0.03,0.32,0.03,0.47s-0.01,0.23-0.03,0.24c-0.01,0.01-0.03,0.01-0.05,0.02
		s-0.04,0-0.05-0.02c-0.02-0.03-0.05-0.1-0.07-0.2c-0.02-0.1-0.04-0.17-0.06-0.19c-0.02-0.03-0.04-0.05-0.06-0.06s-0.04,0-0.07,0.02
		c-0.14,0.1-0.25,0.46-0.34,1.09c-0.09,0.63-0.09,1.3,0,2.01c0.09,0.71,0.29,1.29,0.61,1.73c0.11,0.16,0.25,0.28,0.41,0.37
		c0.16,0.09,0.32,0.08,0.47-0.03c0.47-0.34,0.63-1.06,0.46-2.15s-0.47-2.26-0.9-3.5l-0.61-0.81c-0.54-0.71-0.82-1.08-0.85-1.13
		c-0.28-0.39-0.46-0.68-0.55-0.87c-0.03-0.07-0.05-0.13-0.05-0.17s0.02-0.08,0.07-0.11c0.07-0.05,0.15-0.07,0.24-0.08
		c0.1,0,0.17,0.03,0.22,0.1L376.66,165.8z"/>
	<path d="M381.3,162.49c0.09,0.13,0.27,0.39,0.53,0.78s0.53,0.78,0.8,1.16c0.53,0.74,1.09,1.49,1.67,2.23s0.97,1.23,1.17,1.46
		c0.03,0.04,0.06,0.08,0.1,0.12c0.04,0.04,0.08,0.08,0.11,0.11c0.16,0.16,0.25,0.27,0.28,0.3c0.05,0.06,0.04,0.16-0.01,0.29
		c-0.05,0.13-0.1,0.21-0.16,0.24c-0.07,0.05-0.14,0.06-0.2,0.02s-0.13-0.11-0.2-0.2c-0.26-0.36-0.51-0.74-0.77-1.14l-0.38-0.55
		c-0.13-0.18-0.3-0.42-0.52-0.71c-0.22-0.29-0.41-0.53-0.56-0.73c0.43,1.3,0.69,2.46,0.77,3.46c0.08,1-0.12,1.67-0.61,2.02
		c-0.22,0.16-0.48,0.19-0.78,0.09c-0.3-0.1-0.59-0.34-0.87-0.73c-0.37-0.51-0.59-1.2-0.68-2.05c-0.08-0.86-0.06-1.66,0.07-2.41
		c0.13-0.75,0.31-1.21,0.52-1.36c0.21-0.15,0.36-0.16,0.46-0.02c0.06,0.09,0.11,0.22,0.13,0.38c0.02,0.17,0.03,0.32,0.03,0.47
		s-0.01,0.23-0.03,0.24c-0.01,0.01-0.03,0.01-0.05,0.02c-0.02,0-0.04,0-0.05-0.02c-0.02-0.03-0.05-0.1-0.07-0.2
		c-0.02-0.1-0.04-0.17-0.06-0.19c-0.02-0.03-0.04-0.05-0.06-0.06c-0.02-0.01-0.04,0-0.07,0.02c-0.14,0.1-0.25,0.46-0.33,1.09
		s-0.09,1.3,0,2.01c0.09,0.71,0.29,1.29,0.61,1.73c0.11,0.16,0.25,0.28,0.41,0.37c0.16,0.09,0.32,0.08,0.47-0.03
		c0.47-0.34,0.63-1.06,0.46-2.15c-0.17-1.09-0.47-2.26-0.9-3.5l-0.61-0.81c-0.54-0.71-0.82-1.09-0.85-1.13
		c-0.28-0.39-0.46-0.68-0.55-0.87c-0.03-0.07-0.05-0.13-0.05-0.17c0-0.04,0.02-0.08,0.08-0.11c0.07-0.05,0.15-0.07,0.24-0.08
		c0.09,0,0.17,0.03,0.22,0.1L381.3,162.49z"/>
	<path d="M389.3,163.31c0.08,0.12,0.18,0.44,0.29,0.96c0.11,0.52,0.12,1.08,0.01,1.66c-0.11,0.59-0.41,1.06-0.92,1.43
		c-0.42,0.3-0.86,0.42-1.32,0.36c-0.47-0.06-0.89-0.36-1.28-0.9c-0.36-0.51-0.61-1.09-0.73-1.76c-0.12-0.66-0.11-1.29,0.04-1.88
		c0.15-0.58,0.43-1.02,0.83-1.31c0.24-0.17,0.48-0.26,0.73-0.28c0.24-0.01,0.44,0.08,0.58,0.29c0.16,0.23,0.19,0.54,0.09,0.94
		s-0.3,0.83-0.6,1.28c-0.29,0.46-0.63,0.88-1.02,1.26c0.14,0.35,0.31,0.68,0.51,0.96c0.27,0.38,0.57,0.61,0.9,0.69
		c0.33,0.08,0.66,0,0.99-0.24c0.5-0.36,0.78-0.83,0.84-1.41c0.06-0.58,0.03-1.17-0.09-1.77c-0.01-0.04-0.02-0.1-0.04-0.2
		c-0.02-0.1-0.02-0.16,0.01-0.18C389.17,163.18,389.23,163.22,389.3,163.31z M386.83,162.17c-0.15,0.02-0.3,0.08-0.44,0.18
		c-0.25,0.18-0.43,0.43-0.54,0.75c-0.11,0.33-0.16,0.66-0.15,0.99s0.05,0.61,0.13,0.82c0.28-0.25,0.53-0.56,0.77-0.93
		c0.23-0.37,0.4-0.72,0.51-1.05c0.11-0.32,0.12-0.54,0.05-0.64C387.09,162.2,386.98,162.15,386.83,162.17z"/>
	<path d="M395.19,163.05c-0.03,0.1-0.08,0.19-0.17,0.25c-0.07,0.05-0.13,0.07-0.2,0.07c-0.07,0-0.12-0.02-0.16-0.07
		c-0.19-0.27-0.47-0.69-0.83-1.28c-0.39-0.63-0.73-1.14-1.01-1.54c-0.27-0.38-0.51-0.69-0.71-0.92s-0.34-0.31-0.42-0.25
		c-0.22,0.16-0.27,0.61-0.14,1.34c0.13,0.74,0.35,1.68,0.65,2.82l0.13,0.5c0.02,0.08,0.01,0.17-0.02,0.25
		c-0.04,0.08-0.08,0.15-0.15,0.19c-0.08,0.06-0.13,0.09-0.17,0.09c-0.04,0-0.08-0.02-0.13-0.08l-0.65-0.74l-1.15-1.3
		c-0.45-0.53-0.85-0.97-1.21-1.34c-0.09-0.08-0.15-0.15-0.19-0.2c-0.07-0.1-0.08-0.21-0.04-0.33c0.04-0.12,0.12-0.22,0.23-0.3
		c0.07-0.05,0.22,0.08,0.48,0.37c0.25,0.29,0.65,0.77,1.18,1.45l0.41,0.49c0.52,0.62,0.85,1.02,0.98,1.19
		c-0.01-0.05-0.02-0.11-0.04-0.17s-0.04-0.13-0.05-0.21c-0.3-1.16-0.51-2.16-0.64-2.99c-0.13-0.83-0.05-1.35,0.24-1.55
		c0.2-0.14,0.46-0.07,0.78,0.22c0.32,0.29,0.68,0.69,1.08,1.21c0.44,0.58,1.07,1.44,1.89,2.57
		C395.2,162.86,395.21,162.95,395.19,163.05z"/>
</g>
</svg>
